<?xml version="1.0" encoding="UTF-8" standalone="no"?>
<svg
   xmlns:osb="http://www.openswatchbook.org/uri/2009/osb"
   xmlns:dc="http://purl.org/dc/elements/1.1/"
   xmlns:cc="http://creativecommons.org/ns#"
   xmlns:rdf="http://www.w3.org/1999/02/22-rdf-syntax-ns#"
   xmlns:svg="http://www.w3.org/2000/svg"
   xmlns="http://www.w3.org/2000/svg"
   xmlns:sodipodi="http://sodipodi.sourceforge.net/DTD/sodipodi-0.dtd"
   xmlns:inkscape="http://www.inkscape.org/namespaces/inkscape"
   width="210mm"
   height="297mm"
   viewBox="0 0 210 297"
   version="1.1"
   id="svg54"
   inkscape:version="1.0.2-2 (e86c870879, 2021-01-15)"
   sodipodi:docname="noodles.svg">
  <defs
     id="defs48">
    <linearGradient
       id="linearGradient2937"
       osb:paint="solid">
      <stop
         style="stop-color:#b17a00;stop-opacity:1;"
         offset="0"
         id="stop2935" />
    </linearGradient>
    <linearGradient
       id="linearGradient2931"
       osb:paint="solid">
      <stop
         style="stop-color:#000000;stop-opacity:1;"
         offset="0"
         id="stop2929" />
    </linearGradient>
    <linearGradient
       id="linearGradient971"
       osb:paint="solid">
      <stop
         style="stop-color:#000000;stop-opacity:1;"
         offset="0"
         id="stop969" />
    </linearGradient>
  </defs>
  <sodipodi:namedview
     id="base"
     pagecolor="#ffffff"
     bordercolor="#666666"
     borderopacity="1.0"
     inkscape:pageopacity="0.0"
     inkscape:pageshadow="2"
     inkscape:zoom="0.35"
     inkscape:cx="-150"
     inkscape:cy="560"
     inkscape:document-units="mm"
     inkscape:current-layer="layer1"
     inkscape:document-rotation="0"
     showgrid="false"
     inkscape:window-width="1366"
     inkscape:window-height="705"
     inkscape:window-x="-8"
     inkscape:window-y="-8"
     inkscape:window-maximized="1" />
  <metadata
     id="metadata51">
    <rdf:RDF>
      <cc:Work
         rdf:about="">
        <dc:format>image/svg+xml</dc:format>
        <dc:type
           rdf:resource="http://purl.org/dc/dcmitype/StillImage" />
        <dc:title></dc:title>
      </cc:Work>
    </rdf:RDF>
  </metadata>
  <g
     inkscape:label="Layer 1"
     inkscape:groupmode="layer"
     id="layer1">
    <path
       style="mix-blend-mode:normal;fill:#ffcc00;stroke:#b17a00;stroke-width:0.265;stroke-miterlimit:4;stroke-dasharray:none;stroke-opacity:1"
       id="path78"
       d="m 39.895331,13.966708 c 3.258042,1.974251 6.82648,3.29986 10.308084,4.807355 3.002391,1.053132 5.346491,2.802455 7.070283,5.461009 0.926394,2.044178 1.716596,4.541736 1.156055,6.813676 -0.108641,0.44033 -0.347142,0.838015 -0.520714,1.257022 -0.330811,0.401606 -0.624676,0.836742 -0.992431,1.20482 -1.579591,1.580991 -3.281526,2.26014 -3.218598,2.22196 2.385267,-1.447204 4.877181,-2.725899 7.182332,-4.297579 0.713761,-0.486654 -1.580552,0.698497 -2.380821,1.023847 -0.794597,0.323046 -1.601878,0.613966 -2.402817,0.920946 -6.22232,2.019578 -11.321134,5.133978 -17.04387,8.637069 -0.435219,0.266412 -0.77683,0.673812 -1.082659,1.082297 -0.281459,0.375938 -0.439788,0.829931 -0.659681,1.244896 -0.05707,0.435025 -0.209796,0.868018 -0.171222,1.30507 0.304371,3.448566 3.979349,5.216983 6.681099,6.452108 3.609224,1.543839 7.623805,1.781768 11.276354,3.161755 0.699116,0.264136 1.366229,0.606259 2.049343,0.909389 4.36611,2.238208 6.658761,5.126654 8.357148,9.629566 1.456671,4.326242 -1.593776,5.7654 -4.886889,7.680841 2.262434,-1.338316 4.581263,-2.585577 6.787306,-4.014941 0.851612,-0.551789 -1.813877,0.910439 -2.715249,1.376526 -0.935064,0.483505 -1.879349,0.950876 -2.793889,1.472155 -5.928958,3.379462 -11.55483,6.445012 -17.008975,10.361957 -2.47922,2.147517 -5.59926,4.894992 -5.786141,8.46877 -0.02614,0.500115 0.10405,0.996177 0.156075,1.494266 0.262623,0.492532 0.459708,1.026075 0.787869,1.477592 2.217023,3.050421 6.475364,3.932914 9.908584,4.696531 4.420217,0.76109 9.06085,0.86052 13.162121,2.827109 1.927016,1.36739 3.18093,3.68808 2.885139,6.11421 -0.06577,0.53946 -0.27795,1.05078 -0.416925,1.57616 -0.284679,0.53124 -0.515165,1.0953 -0.854033,1.59372 -0.71234,1.04774 -1.797489,2.11597 -2.813944,2.85779 -0.574048,0.41893 -2.433479,1.46908 -1.819527,1.11116 8.636868,-5.03508 9.883998,-5.5903 5.581558,-3.47383 -7.094847,2.8924 -13.996945,6.31111 -20.159602,10.93323 -3.114563,2.74322 -4.981175,6.44057 -5.783479,10.46698 -0.336823,4.87241 3.421004,5.94727 7.338309,7.18141 4.190081,1.24881 8.748056,1.7734 12.563779,4.0577 0.560673,0.33565 1.068586,0.75245 1.602877,1.12868 2.413514,2.27393 3.896844,5.40571 3.838202,8.76722 -0.01196,0.68612 -0.155199,1.36366 -0.232799,2.04549 -0.653785,2.84861 -2.321083,5.26065 -4.768929,6.87719 -0.708118,0.46763 -2.937444,1.69709 -2.228625,1.23053 2.173081,-1.43038 4.417152,-2.74988 6.625727,-4.12483 -8.25324,2.8289 -16.415837,5.85433 -23.118214,11.787 -1.462066,1.6421 -3.131738,3.93934 -2.723412,6.30213 0.07337,0.42458 0.263485,0.82048 0.395227,1.23071 0.307885,0.44502 0.548894,0.94468 0.923655,1.33504 2.818352,2.93567 9.76653,4.68591 13.604655,5.94802 3.232333,1.16771 6.655133,2.02159 9.656747,3.75281 1.3585,0.78353 1.547693,1.04609 2.692714,2.05229 1.935838,2.09945 2.599592,4.82007 2.591655,7.60957 -0.01709,1.05981 -0.213775,2.13421 -1.010997,2.9133 -0.722236,0.7058 -3.518527,2.12171 -2.445316,1.45087 2.499722,-1.56251 5.0507,-3.04149 7.57605,-4.56224 -3.807981,1.85215 -8.115956,2.61349 -11.824115,4.68861 -3.821168,2.13836 -7.576659,4.39202 -11.364987,6.58803 -3.289077,2.32171 -5.754232,5.36474 -7.194587,9.10914 -0.860483,2.664 -0.304609,5.39928 1.378069,7.63637 0.401458,0.53373 0.899766,0.98721 1.349648,1.48081 3.369656,3.0769 7.794744,4.32944 12.062775,5.61705 2.556203,0.78272 3.902067,1.29999 4.890354,3.86562 0.476703,4.64704 -2.650238,7.7814 -5.894361,10.6115 -6.650921,4.23654 2.93084,-1.41688 4.238077,-2.37181 0.821346,-0.59998 -1.857367,0.83326 -2.810322,1.1889 -3.019398,1.12681 -6.177417,1.85203 -9.297476,2.63146 -2.677187,0.80371 -5.601621,1.24017 -8.051631,2.67921 -10.507001,6.17139 -8.032753,2.99541 -11.00406,7.08705 -0.04388,0.35399 -0.160587,0.70644 -0.131628,1.06197 0.212384,2.60742 3.111288,5.05265 4.944451,6.54622 4.385818,3.08176 9.24097,5.39216 13.854906,8.10551 2.654875,1.45034 4.794658,3.41945 5.981893,6.21475 0.674802,1.77389 -0.02035,3.52652 -0.3894,5.28108 -0.242639,1.41258 -0.785736,2.73838 -1.089864,4.14015 0,0 10.081755,-4.84738 10.081755,-4.84738 v 0 c 0.349591,-1.377 0.80936,-2.72643 1.038087,-4.13269 0.454745,-1.97993 0.908921,-3.95306 0.04385,-5.90267 -1.394516,-2.95518 -3.6371,-5.17096 -6.556343,-6.67086 -4.608796,-2.5986 -9.425371,-4.87256 -13.72611,-7.97423 -1.151204,-0.95442 -4.454974,-3.72739 -4.104047,-5.56436 0.04219,-0.22085 0.211233,-0.39697 0.316852,-0.59545 3.03495,-2.87274 0.759701,-0.61852 -7.853961,4.17135 -0.449532,0.24997 0.862994,-0.56386 1.322301,-0.79538 2.154943,-1.08627 4.523197,-1.65478 6.828586,-2.31133 3.130087,-0.77155 6.305272,-1.46967 9.364948,-2.4976 6.177103,-2.07525 11.818014,-5.59257 16.984448,-9.53011 3.528533,-3.40382 6.350272,-6.72327 5.603086,-11.929 -1.156702,-2.91938 -2.511245,-3.84284 -5.530082,-4.66639 -4.144463,-1.09498 -8.487865,-2.14793 -11.749273,-5.09722 -2.448171,-2.6543 -3.275555,-4.5168 -2.079765,-8.05062 1.562261,-3.50997 4.053197,-6.31933 7.299994,-8.4024 -2.4116,1.35922 -4.855712,2.66231 -7.234803,4.07766 -0.708102,0.42126 1.466029,-0.75407 2.217192,-1.09262 3.09367,-1.39431 6.382329,-2.26817 9.514419,-3.56446 3.754626,-2.06013 7.533558,-4.07656 11.263879,-6.18038 2.15093,-1.21308 3.173177,-3.01164 3.046354,-5.4698 -0.192606,-3.0713 -0.956405,-6.03831 -3.1101,-8.34826 -1.215168,-1.08664 -1.462072,-1.41579 -2.910163,-2.25253 -3.088232,-1.78445 -6.649598,-2.54657 -9.977448,-3.73227 -3.393916,-1.09663 -10.397188,-2.96753 -12.879345,-5.55679 -0.294423,-0.30713 -0.46486,-0.71271 -0.697291,-1.06907 -0.07786,-0.30878 -0.210232,-0.60875 -0.233574,-0.92634 -0.155382,-2.11406 1.608566,-4.01698 2.956065,-5.38123 3.437827,-2.70752 3.310226,-2.47909 -5.928645,2.95567 -0.710134,0.41774 1.468281,-0.75063 2.2255,-1.07531 2.679224,-1.14878 5.508014,-1.88867 8.240273,-2.89098 3.966263,-2.14874 7.960135,-4.24727 11.898786,-6.44621 3.545835,-1.97963 5.991699,-5.03115 6.66636,-9.08149 0.04635,-0.73975 0.156673,-1.47825 0.13907,-2.21924 -0.08739,-3.67863 -1.671997,-7.0471 -4.284697,-9.59084 -1.557515,-1.11907 -1.955305,-1.52537 -3.766367,-2.31135 -3.411072,-1.48036 -7.135289,-2.04377 -10.67721,-3.10075 -3.408186,-1.07238 -6.828774,-1.55411 -6.356448,-5.88683 0.89521,-3.85475 2.834166,-7.25849 6.02098,-9.68966 3.685733,-2.53879 4.007371,-2.68833 -5.998562,3.19278 -0.567314,0.33345 1.176422,-0.59018 1.769322,-0.87567 2.187609,-1.05337 1.477658,-0.70485 3.74393,-1.62802 0.648992,-0.26436 1.295821,-0.53399 1.94373,-0.80099 5.511395,-2.54254 3.165621,-1.3924 13.110826,-7.30404 2.454572,-1.45904 4.28457,-3.68615 5.224233,-6.37052 0.102179,-0.61381 0.276725,-1.21989 0.306535,-1.84143 0.135438,-2.823751 -1.266732,-5.441422 -3.474177,-7.107448 -0.525119,-0.278675 -1.023641,-0.614619 -1.575353,-0.836025 -3.749143,-1.504569 -7.995208,-1.325705 -11.896791,-2.119418 -2.939561,-0.610881 -7.274065,-1.408975 -9.199843,-4.009523 -0.242795,-0.327866 -0.368385,-0.728064 -0.552577,-1.092094 -0.01297,-0.392573 -0.09097,-0.788403 -0.03887,-1.177718 0.43952,-3.284445 3.502109,-5.66995 5.835962,-7.630266 2.777061,-1.934409 12.132945,-7.685897 -1.325121,0.286512 -0.897427,0.531624 1.82988,-1.002276 2.757734,-1.478807 9.603748,-4.932296 -11.055239,6.486105 14.41269,-7.974875 3.830267,-2.493131 6.084707,-4.312187 4.356446,-9.112271 -1.925804,-4.627303 -4.389477,-7.819204 -8.864102,-10.287598 -1.896258,-0.927004 -2.202159,-1.184502 -4.216842,-1.752941 -3.018144,-0.851564 -6.192091,-1.165143 -9.130514,-2.326521 -1.949503,-0.844621 -5.922058,-2.517846 -5.72702,-5.27405 0.02307,-0.325911 0.205457,-0.620313 0.308184,-0.930468 0.249029,-0.317159 0.458684,-0.669645 0.747083,-0.951479 1.830088,-1.788438 12.478991,-7.300278 -6.850258,3.637425 -0.569489,0.34103 1.202541,-0.563118 1.813298,-0.823105 1.619266,-0.689285 2.753238,-1.083538 4.420206,-1.699117 7.066375,-2.6167 7.284783,-3.046333 16.276491,-8.266398 1.759519,-1.021475 3.151847,-2.338264 4.049763,-4.173527 0.13245,-0.502322 0.318894,-0.993434 0.397351,-1.506966 0.387562,-2.536742 -0.412535,-5.185239 -1.496171,-7.44003 -1.847143,-2.825225 -4.235926,-4.917064 -7.506702,-5.95157 -3.399756,-1.438013 -6.919304,-2.647551 -9.966463,-4.7877041 0,0 -9.43847,6.0433501 -9.43847,6.0433501 z" />
    <path
       style="mix-blend-mode:normal;fill:#ffcc00;stroke:#b17a00;stroke-width:0.265;stroke-miterlimit:4;stroke-dasharray:none;stroke-opacity:1"
       id="path78-1"
       d="m 76.441373,12.003716 c 3.258042,1.974251 6.82648,3.29986 10.308084,4.807355 3.002391,1.053132 5.346491,2.802455 7.070279,5.461009 0.926394,2.044178 1.716601,4.541736 1.156064,6.813676 -0.10865,0.44033 -0.347147,0.838015 -0.520717,1.257022 -0.330817,0.401606 -0.624677,0.836742 -0.992434,1.20482 -1.57959,1.580991 -3.281525,2.26014 -3.218597,2.22196 2.38527,-1.447204 4.877178,-2.725899 7.182313,-4.297579 0.713767,-0.486654 -1.580541,0.698497 -2.380805,1.023847 -0.794597,0.323046 -1.601871,0.613966 -2.402818,0.920946 -6.222316,2.019578 -11.32113,5.133978 -17.043866,8.637069 -0.435219,0.266412 -0.77683,0.673812 -1.082659,1.082297 -0.281459,0.375938 -0.439788,0.829931 -0.659681,1.244896 -0.05707,0.435025 -0.209796,0.868018 -0.171222,1.30507 0.304371,3.448566 3.979349,5.216983 6.681099,6.452108 3.609224,1.543839 7.623805,1.781768 11.276354,3.161755 0.699116,0.264136 1.366225,0.606259 2.049339,0.909389 4.366096,2.238208 6.658734,5.126654 8.357124,9.629566 1.45667,4.326242 -1.59378,5.7654 -4.886872,7.680841 2.262418,-1.338316 4.581242,-2.585577 6.787282,-4.014941 0.85162,-0.551789 -1.81387,0.910439 -2.71524,1.376526 -0.93507,0.483505 -1.879344,0.950876 -2.793881,1.472155 -5.92894,3.379462 -11.554812,6.445012 -17.008957,10.361957 -2.47922,2.147517 -5.59926,4.894992 -5.786141,8.46877 -0.02614,0.500115 0.10405,0.996177 0.156075,1.494266 0.262623,0.492535 0.459708,1.026072 0.787869,1.477589 2.217023,3.050405 6.475364,3.932889 9.908584,4.696503 4.420217,0.761087 9.060848,0.860517 13.162094,2.827095 1.927017,1.367387 3.180927,3.688077 2.885137,6.114207 -0.0658,0.53946 -0.27795,1.05078 -0.41693,1.57616 -0.28468,0.53124 -0.51516,1.0953 -0.85403,1.59372 -0.71234,1.04774 -1.797487,2.11597 -2.813931,2.85779 -0.574047,0.41893 -2.433465,1.46908 -1.819518,1.11116 8.636849,-5.03508 9.883979,-5.5903 5.581539,-3.47383 -7.09482,2.8924 -13.996917,6.31111 -20.159574,10.93323 -3.114563,2.74322 -4.981175,6.44057 -5.783479,10.46698 -0.336823,4.8724 3.421004,5.94726 7.338309,7.1814 4.190081,1.24881 8.748056,1.7734 12.563768,4.0577 0.560677,0.33565 1.068584,0.75246 1.602871,1.12869 2.413505,2.27393 3.896835,5.40571 3.838185,8.76722 -0.012,0.68611 -0.1552,1.36366 -0.2328,2.04549 -0.65378,2.84861 -2.321074,5.26065 -4.768899,6.87719 -0.708117,0.46763 -2.937435,1.69709 -2.228618,1.23052 2.173068,-1.43038 4.417126,-2.74987 6.625697,-4.12482 -8.253208,2.8289 -16.415809,5.85432 -23.118186,11.787 -1.462066,1.64209 -3.131738,3.93933 -2.723412,6.30213 0.07337,0.42457 0.263485,0.82048 0.395227,1.2307 0.307885,0.44502 0.548894,0.94468 0.923655,1.33504 2.818352,2.93567 9.76653,4.68591 13.604655,5.94802 3.23233,1.16771 6.655122,2.0216 9.656724,3.75282 1.358497,0.78353 1.547687,1.04609 2.692707,2.05229 1.93584,2.09944 2.59959,4.82006 2.59165,7.60957 -0.0171,1.0598 -0.21377,2.1342 -1.01099,2.91329 -0.72224,0.70581 -3.51853,2.12172 -2.44532,1.45088 2.49972,-1.56252 5.0507,-3.0415 7.57605,-4.56225 -3.80798,1.85215 -8.11595,2.6135 -11.824092,4.68862 -3.821159,2.13836 -7.57665,4.39202 -11.364978,6.58803 -3.289077,2.32171 -5.754232,5.36474 -7.194587,9.10914 -0.860483,2.66399 -0.304609,5.39928 1.378069,7.63637 0.401458,0.53373 0.899766,0.98721 1.349648,1.48081 3.369656,3.07689 7.794744,4.32944 12.062779,5.61705 2.556195,0.78272 3.902046,1.29999 4.89033,3.86562 0.4767,4.64704 -2.650225,7.7814 -5.894341,10.6115 -6.650921,4.23654 2.930839,-1.41688 4.238063,-2.37181 0.821344,-0.59998 -1.857351,0.83326 -2.810305,1.18889 -3.019401,1.12682 -6.17742,1.85204 -9.297479,2.63147 -2.677187,0.8037 -5.601621,1.24017 -8.051631,2.67921 -10.507001,6.17139 -8.032753,2.99541 -11.00406,7.08705 -0.04388,0.35399 -0.160587,0.70644 -0.131628,1.06196 0.212384,2.60742 3.111288,5.05265 4.944451,6.54622 4.385818,3.08176 9.24097,5.39216 13.854906,8.10551 2.654875,1.45034 4.794658,3.41945 5.981893,6.21475 0.674802,1.77389 -0.02035,3.52652 -0.3894,5.28108 -0.242639,1.41258 -0.785736,2.73838 -1.089864,4.14015 0,0 10.081735,-4.84738 10.081735,-4.84738 v 0 c 0.349587,-1.377 0.809354,-2.72643 1.038084,-4.13269 0.454737,-1.97993 0.908917,-3.95306 0.0439,-5.90267 -1.394514,-2.95518 -3.637082,-5.17096 -6.556324,-6.67086 -4.608792,-2.5986 -9.425367,-4.87256 -13.726106,-7.97423 -1.151204,-0.95442 -4.454974,-3.72739 -4.104047,-5.56436 0.04219,-0.22085 0.211233,-0.39697 0.316852,-0.59545 3.03495,-2.87274 0.759701,-0.61852 -7.853961,4.17135 -0.449532,0.24997 0.862994,-0.56386 1.322301,-0.79538 2.154943,-1.08627 4.523197,-1.65478 6.828586,-2.31133 3.130087,-0.77155 6.305272,-1.46967 9.364948,-2.4976 6.177103,-2.07525 11.818003,-5.59257 16.984418,-9.53011 3.52853,-3.40382 6.35027,-6.72327 5.60309,-11.929 -1.15671,-2.91938 -2.51125,-3.84284 -5.53009,-4.66639 -4.144451,-1.09498 -8.487834,-2.14793 -11.749239,-5.09722 -2.448171,-2.6543 -3.275555,-4.5168 -2.079765,-8.05062 1.562261,-3.50997 4.053196,-6.31933 7.299988,-8.4024 -2.411598,1.35922 -4.855706,2.66231 -7.234797,4.07766 -0.708102,0.42126 1.466029,-0.75407 2.217192,-1.09262 3.093667,-1.39431 6.382316,-2.26817 9.514391,-3.56446 3.75462,-2.06013 7.53356,-4.07656 11.26388,-6.18038 2.15093,-1.21308 3.17318,-3.01164 3.04635,-5.4698 -0.1926,-3.0713 -0.9564,-6.03831 -3.1101,-8.34826 -1.21517,-1.08664 -1.46207,-1.41579 -2.91016,-2.25253 -3.08823,-1.78445 -6.6496,-2.54657 -9.977441,-3.73227 -3.393902,-1.09663 -10.397167,-2.96753 -12.879324,-5.55679 -0.294423,-0.30713 -0.46486,-0.71271 -0.697291,-1.06907 -0.07786,-0.30878 -0.210232,-0.60875 -0.233574,-0.92634 -0.155382,-2.11406 1.608566,-4.01698 2.956065,-5.38123 3.437827,-2.70752 3.310226,-2.47909 -5.928645,2.95567 -0.710134,0.41774 1.468281,-0.75063 2.2255,-1.07531 2.679224,-1.14878 5.508014,-1.88867 8.240273,-2.89098 3.966258,-2.14874 7.960107,-4.24727 11.898757,-6.44621 3.54584,-1.97963 5.9917,-5.03115 6.66636,-9.08149 0.0463,-0.73975 0.15667,-1.47825 0.13907,-2.21924 -0.0874,-3.67863 -1.672,-7.0471 -4.2847,-9.59084 -1.55751,-1.11907 -1.9553,-1.52537 -3.76637,-2.31135 -3.411067,-1.48036 -7.135256,-2.04376 -10.677175,-3.10074 -3.408186,-1.07238 -6.828774,-1.55411 -6.356448,-5.88683 0.89521,-3.85475 2.834166,-7.25849 6.02098,-9.68966 3.685727,-2.53879 4.007367,-2.68833 -5.998562,3.19278 -0.567314,0.33345 1.176422,-0.59018 1.769322,-0.87567 2.187609,-1.05337 1.477658,-0.70485 3.74393,-1.62802 0.648992,-0.26436 1.295825,-0.53399 1.943729,-0.80099 5.51137,-2.54254 3.165612,-1.3924 13.110794,-7.30404 2.45458,-1.45904 4.28457,-3.68615 5.22424,-6.37052 0.10218,-0.61381 0.27672,-1.21989 0.30653,-1.84143 0.13544,-2.823738 -1.26673,-5.441393 -3.47417,-7.107411 -0.52512,-0.27867 -1.02365,-0.614617 -1.57536,-0.836017 -3.74914,-1.504571 -7.995204,-1.325701 -11.896763,-2.119415 -2.939558,-0.610881 -7.274062,-1.408975 -9.19984,-4.009523 -0.242795,-0.327866 -0.368385,-0.728064 -0.552577,-1.092094 -0.01297,-0.392573 -0.09097,-0.788403 -0.03887,-1.177718 0.43952,-3.284445 3.502109,-5.66995 5.835962,-7.630266 2.777061,-1.934409 12.132918,-7.685897 -1.325121,0.286512 -0.897427,0.531624 1.82988,-1.002276 2.757731,-1.478807 9.603718,-4.932296 -11.055236,6.486105 14.412668,-7.974875 3.83026,-2.493131 6.0847,-4.312187 4.35644,-9.112271 -1.9258,-4.627303 -4.38947,-7.819204 -8.8641,-10.287598 -1.89626,-0.927004 -2.20216,-1.184502 -4.216831,-1.752941 -3.018132,-0.851564 -6.192073,-1.165143 -9.130496,-2.326521 -1.949503,-0.844621 -5.922058,-2.517846 -5.72702,-5.27405 0.02307,-0.325911 0.205457,-0.620313 0.308184,-0.930468 0.249029,-0.317159 0.458684,-0.669645 0.747083,-0.951479 1.830088,-1.788438 12.478978,-7.300278 -6.850258,3.637425 -0.569489,0.34103 1.202541,-0.563118 1.813298,-0.823105 1.619266,-0.689285 2.753238,-1.083538 4.420206,-1.699117 7.066375,-2.6167 7.284783,-3.046333 16.276464,-8.266398 1.75952,-1.021475 3.15184,-2.338264 4.04976,-4.173527 0.13245,-0.502322 0.31889,-0.993434 0.39735,-1.506966 0.38756,-2.536742 -0.41253,-5.185239 -1.49617,-7.44003 -1.84714,-2.825225 -4.235924,-4.917064 -7.506676,-5.95157 -3.399752,-1.4380124 -6.9193,-2.6475498 -9.966459,-4.7877016 0,0 -9.43847,6.0433476 -9.43847,6.0433476 z" />
    <path
       style="mix-blend-mode:normal;fill:#ffcc00;stroke:#b17a00;stroke-width:0.265;stroke-miterlimit:4;stroke-dasharray:none;stroke-opacity:1"
       id="path78-1-4"
       d="m 99.229056,10.040753 c 3.258034,1.97425 6.826474,3.299859 10.308074,4.807354 3.00239,1.053132 5.34649,2.802455 7.07028,5.461009 0.92639,2.044178 1.7166,4.541736 1.15606,6.813676 -0.10865,0.44033 -0.34714,0.838015 -0.52071,1.257022 -0.33082,0.401606 -0.62468,0.836742 -0.99244,1.20482 -1.57959,1.580991 -3.28152,2.26014 -3.21859,2.22196 2.38526,-1.447204 4.87717,-2.725899 7.18232,-4.297579 0.71377,-0.486654 -1.58055,0.698497 -2.38082,1.023847 -0.79459,0.323046 -1.60187,0.613966 -2.40281,0.920946 -6.22232,2.019578 -11.32113,5.133978 -17.043858,8.637069 -0.43522,0.266412 -0.776827,0.673812 -1.082654,1.082297 -0.28146,0.375938 -0.43979,0.829931 -0.659677,1.244896 -0.0571,0.435025 -0.2098,0.868018 -0.17122,1.30507 0.30437,3.448566 3.979329,5.216983 6.681079,6.452108 3.60922,1.543839 7.6238,1.781768 11.27635,3.161755 0.69912,0.264136 1.36623,0.606259 2.04934,0.909389 4.36611,2.238208 6.65876,5.126654 8.35715,9.629566 1.45667,4.326242 -1.59378,5.7654 -4.88689,7.680841 2.26243,-1.338316 4.58126,-2.585577 6.7873,-4.014941 0.85162,-0.551789 -1.81387,0.910439 -2.71524,1.376526 -0.93507,0.483505 -1.87935,0.950876 -2.79389,1.472155 -5.92896,3.379462 -11.55483,6.445012 -17.00897,10.361957 -2.47922,2.147517 -5.599251,4.894992 -5.786131,8.46877 -0.0261,0.500115 0.10405,0.996177 0.15607,1.494266 0.26262,0.492535 0.459707,1.026072 0.787867,1.477589 2.217014,3.050408 6.475354,3.932885 9.908574,4.696499 4.42022,0.761067 9.06085,0.860497 13.16212,2.827055 1.92702,1.367371 3.18093,3.688035 2.88514,6.114165 -0.0658,0.53946 -0.27795,1.05078 -0.41693,1.57616 -0.28468,0.53124 -0.51516,1.0953 -0.85403,1.59372 -0.71234,1.04774 -1.79749,2.11597 -2.81394,2.85779 -0.57405,0.41893 -2.43348,1.46908 -1.81953,1.11116 8.63687,-5.03508 9.884,-5.5903 5.58156,-3.47383 -7.09485,2.8924 -13.99694,6.31111 -20.1596,10.93323 -3.11456,2.74322 -4.981167,6.44057 -5.783474,10.46698 -0.336817,4.8724 3.421004,5.94726 7.338304,7.1814 4.19008,1.24881 8.74806,1.7734 12.56377,4.0577 0.56068,0.33565 1.06859,0.75246 1.60288,1.12869 2.41352,2.27393 3.89685,5.40571 3.8382,8.76722 -0.012,0.68611 -0.1552,1.36366 -0.2328,2.04549 -0.65378,2.84861 -2.32108,5.26065 -4.76892,6.87719 -0.70812,0.46763 -2.93744,1.69709 -2.22862,1.23052 2.17307,-1.43038 4.41714,-2.74987 6.62572,-4.12482 -8.25324,2.8289 -16.41583,5.85432 -23.11821,11.787 -1.462064,1.64209 -3.131725,3.93933 -2.723398,6.30213 0.0734,0.42457 0.26348,0.82048 0.39522,1.2307 0.307887,0.44502 0.548897,0.94468 0.923654,1.33504 2.818344,2.93567 9.766524,4.68591 13.604644,5.94802 3.23234,1.16771 6.65513,2.0216 9.65675,3.75282 1.3585,0.78353 1.54769,1.04609 2.69271,2.05229 1.93584,2.09944 2.59959,4.82006 2.59165,7.60957 -0.0171,1.0598 -0.21377,2.1342 -1.01099,2.91329 -0.72224,0.70581 -3.51853,2.12172 -2.44532,1.45088 2.49972,-1.56252 5.0507,-3.0415 7.57605,-4.56225 -3.80798,1.85215 -8.11595,2.6135 -11.82411,4.68862 -3.82117,2.13836 -7.57666,4.39202 -11.36499,6.58803 -3.28907,2.32171 -5.75423,5.36474 -7.19458,9.10914 -0.86049,2.66399 -0.30461,5.39928 1.37807,7.63637 0.40145,0.53373 0.89976,0.98721 1.34964,1.48081 3.36966,3.07689 7.79475,4.32944 12.06278,5.61705 2.5562,0.78272 3.90206,1.29999 4.89035,3.86562 0.4767,4.64704 -2.65024,7.7814 -5.89436,10.6115 -6.65092,4.23654 2.93084,-1.41688 4.23807,-2.37181 0.82135,-0.59998 -1.85736,0.83326 -2.81031,1.18889 -3.0194,1.12682 -6.17742,1.85204 -9.29748,2.63147 -2.67719,0.8037 -5.60162,1.24017 -8.051624,2.67921 -10.506961,6.17139 -8.032711,2.99541 -11.004021,7.08705 -0.0439,0.35399 -0.16059,0.70644 -0.13163,1.06196 0.21239,2.60742 3.11129,5.05265 4.944444,6.54622 4.385796,3.08176 9.240931,5.39216 13.854871,8.10551 2.65487,1.45034 4.79466,3.41945 5.98189,6.21475 0.6748,1.77389 -0.0204,3.52652 -0.3894,5.28108 -0.24264,1.41258 -0.78573,2.73838 -1.08986,4.14015 0,0 10.08175,-4.84738 10.08175,-4.84738 v 0 c 0.34959,-1.377 0.80936,-2.72643 1.03809,-4.13269 0.45474,-1.97993 0.90892,-3.95306 0.0439,-5.90267 -1.39452,-2.95518 -3.6371,-5.17096 -6.55634,-6.67086 -4.6088,-2.5986 -9.42537,-4.87256 -13.72611,-7.97423 -1.15121,-0.95442 -4.454968,-3.72739 -4.104038,-5.56436 0.0422,-0.22085 0.211227,-0.39697 0.316847,-0.59545 3.034941,-2.87274 0.759697,-0.61852 -7.853924,4.17135 -0.44953,0.24997 0.863,-0.56386 1.3223,-0.79538 2.154938,-1.08627 4.523176,-1.65478 6.828551,-2.31133 3.130084,-0.77155 6.305264,-1.46967 9.364944,-2.4976 6.1771,-2.07525 11.81801,-5.59257 16.98444,-9.53011 3.52853,-3.40382 6.35027,-6.72327 5.60309,-11.929 -1.15671,-2.91938 -2.51125,-3.84284 -5.53009,-4.66639 -4.14446,-1.09498 -8.48786,-2.14793 -11.74926,-5.09722 -2.44818,-2.6543 -3.27556,-4.5168 -2.07977,-8.05062 1.56226,-3.50997 4.0532,-6.31933 7.29999,-8.4024 -2.4116,1.35922 -4.85571,2.66231 -7.2348,4.07766 -0.7081,0.42126 1.46603,-0.75407 2.21719,-1.09262 3.09367,-1.39431 6.38233,-2.26817 9.51442,-3.56446 3.75462,-2.06013 7.53356,-4.07656 11.26388,-6.18038 2.15093,-1.21308 3.17318,-3.01164 3.04635,-5.4698 -0.1926,-3.0713 -0.9564,-6.03831 -3.1101,-8.34826 -1.21517,-1.08664 -1.46207,-1.41579 -2.91016,-2.25253 -3.08823,-1.78445 -6.6496,-2.54657 -9.97745,-3.73227 -3.39392,-1.09663 -10.39718,-2.96753 -12.87934,-5.55679 -0.29442,-0.30713 -0.46486,-0.71271 -0.69729,-1.06907 -0.0779,-0.30878 -0.21023,-0.60875 -0.23358,-0.92634 -0.15538,-2.11406 1.60857,-4.01698 2.95607,-5.38123 3.43783,-2.70752 3.31023,-2.47909 -5.92865,2.95567 -0.71013,0.41774 1.46829,-0.75063 2.2255,-1.07531 2.67923,-1.14878 5.50802,-1.88867 8.24028,-2.89098 3.96626,-2.14874 7.96013,-4.24727 11.89878,-6.44621 3.54584,-1.97963 5.9917,-5.03115 6.66636,-9.08149 0.0463,-0.73975 0.15667,-1.47825 0.13907,-2.21924 -0.0874,-3.67863 -1.672,-7.0471 -4.2847,-9.59084 -1.55751,-1.11907 -1.9553,-1.52537 -3.76637,-2.31135 -3.41107,-1.48036 -7.13528,-2.04376 -10.6772,-3.10074 -3.40819,-1.07238 -6.82877,-1.55411 -6.35645,-5.88683 0.89521,-3.85475 2.83417,-7.25849 6.02098,-9.68966 3.68573,-2.53879 4.00737,-2.68833 -5.99856,3.19278 -0.56731,0.33345 1.17642,-0.59018 1.76932,-0.87567 2.18761,-1.05337 1.47766,-0.70485 3.74393,-1.62802 0.64899,-0.26436 1.29582,-0.53399 1.94373,-0.80099 5.51139,-2.54254 3.16562,-1.3924 13.11082,-7.30404 2.45458,-1.45904 4.28457,-3.68615 5.22424,-6.37051 0.10218,-0.61381 0.27672,-1.219884 0.30653,-1.841401 0.13544,-2.823715 -1.26673,-5.44135 -3.47417,-7.107364 -0.52512,-0.27867 -1.02365,-0.614617 -1.57536,-0.836017 -3.74914,-1.504571 -7.99521,-1.325701 -11.89679,-2.119415 -2.93956,-0.610881 -7.27406,-1.408975 -9.19984,-4.009523 -0.24279,-0.327866 -0.36838,-0.728064 -0.55258,-1.092094 -0.013,-0.392573 -0.091,-0.788403 -0.0389,-1.177718 0.43952,-3.284445 3.50211,-5.66995 5.83597,-7.630266 2.77706,-1.934409 12.13294,-7.685897 -1.32512,0.286512 -0.89743,0.531624 1.82988,-1.002276 2.75773,-1.478807 9.60374,-4.932296 -11.05524,6.486105 14.41269,-7.974875 3.83026,-2.493131 6.0847,-4.312187 4.35644,-9.112271 -1.9258,-4.627303 -4.38947,-7.819204 -8.8641,-10.287598 -1.89626,-0.927004 -2.20216,-1.184502 -4.21684,-1.752941 -3.01815,-0.851564 -6.19209,-1.165143 -9.13051,-2.326521 -1.94951,-0.844621 -5.92206,-2.517846 -5.72702,-5.27405 0.0231,-0.325911 0.20545,-0.620313 0.30818,-0.930468 0.24903,-0.317159 0.45869,-0.669645 0.74708,-0.951479 1.83009,-1.788438 12.47899,-7.300278 -6.85025,3.637425 -0.56949,0.34103 1.20254,-0.563118 1.81329,-0.823105 1.61927,-0.689285 2.75324,-1.083538 4.42021,-1.699117 7.06638,-2.6167 7.28478,-3.046333 16.27649,-8.266398 1.75952,-1.021475 3.15184,-2.338264 4.04976,-4.173527 0.13245,-0.502322 0.31889,-0.993434 0.39735,-1.506966 0.38756,-2.536742 -0.41253,-5.185239 -1.49617,-7.44003 -1.84714,-2.825225 -4.23593,-4.9170627 -7.5067,-5.9515671 -3.39975,-1.4380111 -6.9193,-2.6475465 -9.96646,-4.7876963 0,0 -9.438464,6.0433404 -9.438464,6.0433404 z" />
    <path
       style="mix-blend-mode:normal;fill:#f3c200;fill-opacity:1;stroke:#b17a00;stroke-width:0.265;stroke-miterlimit:4;stroke-dasharray:none;stroke-opacity:1"
       id="path78-9"
       d="m 55.626138,11.650179 c 3.258042,1.974252 6.82648,3.299862 10.308084,4.807358 3.002391,1.053132 5.346491,2.802455 7.070283,5.461009 0.926394,2.044178 1.716596,4.541736 1.156055,6.813676 -0.108641,0.44033 -0.347142,0.838015 -0.520714,1.257022 -0.330811,0.401606 -0.624676,0.836742 -0.992431,1.20482 -1.579591,1.580991 -3.281526,2.26014 -3.218598,2.22196 2.385267,-1.447204 4.877181,-2.725899 7.182332,-4.297579 0.713761,-0.486654 -1.580552,0.698497 -2.380821,1.023847 -0.794597,0.323046 -1.601878,0.613966 -2.402817,0.920946 -6.22232,2.019578 -11.321134,5.133978 -17.04387,8.637069 -0.435219,0.266412 -0.77683,0.673812 -1.082659,1.082297 -0.281459,0.375938 -0.439788,0.829931 -0.659681,1.244896 -0.05707,0.435025 -0.209796,0.868018 -0.171222,1.30507 0.304371,3.448566 3.979349,5.216983 6.681099,6.452108 3.609224,1.543839 7.623805,1.781768 11.276354,3.161755 0.699116,0.264136 1.366229,0.606259 2.049343,0.909389 4.36611,2.238208 6.658761,5.126654 8.357148,9.629566 1.456671,4.326242 -1.593776,5.7654 -4.886889,7.680841 2.262434,-1.338316 4.581263,-2.585577 6.787306,-4.014941 0.851612,-0.551789 -1.813877,0.910439 -2.715249,1.376526 -0.935064,0.483505 -1.879349,0.950876 -2.793889,1.472155 -5.928958,3.379462 -11.55483,6.445012 -17.008975,10.361957 -2.47922,2.147517 -5.59926,4.894992 -5.786141,8.46877 -0.02614,0.500115 0.10405,0.996177 0.156075,1.494266 0.262623,0.492532 0.459708,1.026075 0.787869,1.477588 2.217023,3.050402 6.475364,3.932899 9.908584,4.696503 4.420217,0.761087 9.06085,0.860514 13.162121,2.827095 1.927016,1.367392 3.18093,3.688092 2.885139,6.114242 -0.06577,0.53946 -0.27795,1.05078 -0.416925,1.57617 -0.284679,0.53124 -0.515165,1.0953 -0.854033,1.59372 -0.71234,1.04774 -1.797489,2.11597 -2.813944,2.85779 -0.574048,0.41893 -2.433479,1.46908 -1.819527,1.11116 8.636864,-5.03508 9.883988,-5.5903 5.581558,-3.47383 -7.094847,2.8924 -13.996945,6.31111 -20.159602,10.93323 -3.114563,2.74322 -4.981175,6.44057 -5.783479,10.46698 -0.336823,4.87241 3.421004,5.94727 7.338309,7.18141 4.190081,1.24881 8.748056,1.7734 12.563779,4.0577 0.560673,0.33565 1.068586,0.75245 1.602877,1.12868 2.413514,2.27393 3.896844,5.40571 3.838202,8.76722 -0.01196,0.68612 -0.155199,1.36366 -0.232799,2.04549 -0.653785,2.84861 -2.321083,5.26065 -4.768929,6.87719 -0.708118,0.46763 -2.937444,1.69709 -2.228625,1.23053 2.173081,-1.43038 4.417152,-2.74988 6.625727,-4.12483 -8.25324,2.8289 -16.415837,5.85433 -23.118214,11.787 -1.462066,1.6421 -3.131738,3.93934 -2.723412,6.30213 0.07337,0.42458 0.263485,0.82048 0.395227,1.23071 0.307885,0.44502 0.548894,0.94468 0.923655,1.33504 2.818352,2.93567 9.76653,4.68591 13.604655,5.94802 3.232333,1.16771 6.655133,2.02159 9.656747,3.75281 1.3585,0.78353 1.547693,1.04609 2.692714,2.05229 1.935838,2.09945 2.599592,4.82007 2.591655,7.60957 -0.01709,1.05981 -0.213775,2.13421 -1.010997,2.9133 -0.722236,0.7058 -3.518527,2.12171 -2.445316,1.45087 2.499722,-1.56251 5.050696,-3.04149 7.576031,-4.56224 -3.807959,1.85215 -8.115937,2.61349 -11.824096,4.68861 -3.821168,2.13836 -7.576659,4.39202 -11.364987,6.58803 -3.289077,2.32171 -5.754232,5.36474 -7.194587,9.10914 -0.860483,2.664 -0.304609,5.39928 1.378069,7.63637 0.401458,0.53373 0.899766,0.98721 1.349648,1.48081 3.369656,3.0769 7.794744,4.32944 12.062775,5.61705 2.556203,0.78272 3.902067,1.29999 4.890354,3.86562 0.476703,4.64704 -2.650238,7.7814 -5.894361,10.6115 -6.650921,4.23654 2.93084,-1.41688 4.238077,-2.37181 0.821346,-0.59998 -1.857367,0.83326 -2.810322,1.1889 -3.019398,1.12681 -6.177417,1.85203 -9.297476,2.63146 -2.677187,0.80371 -5.601621,1.24017 -8.051631,2.67921 -10.507001,6.17139 -8.032753,2.99541 -11.00406,7.08705 -0.04388,0.35399 -0.160587,0.70644 -0.131628,1.06197 0.212384,2.60742 3.111288,5.05265 4.944451,6.54622 4.385818,3.08176 9.24097,5.39216 13.854906,8.10551 2.654875,1.45034 4.794658,3.41945 5.981893,6.21475 0.674802,1.77389 -0.02035,3.52652 -0.3894,5.28108 -0.242639,1.41258 -0.785736,2.73838 -1.089864,4.14015 0,0 10.081755,-4.84738 10.081755,-4.84738 v 0 c 0.349591,-1.377 0.80936,-2.72643 1.038087,-4.13269 0.454745,-1.97993 0.908921,-3.95306 0.04385,-5.90267 -1.394516,-2.95518 -3.6371,-5.17096 -6.556343,-6.67086 -4.608796,-2.5986 -9.425371,-4.87256 -13.72611,-7.97423 -1.151204,-0.95442 -4.454974,-3.72739 -4.104047,-5.56436 0.04219,-0.22085 0.211233,-0.39697 0.316852,-0.59545 3.03495,-2.87274 0.759701,-0.61852 -7.853961,4.17135 -0.449532,0.24997 0.862994,-0.56386 1.322301,-0.79538 2.154943,-1.08627 4.523197,-1.65478 6.828586,-2.31133 3.130087,-0.77155 6.305272,-1.46967 9.364948,-2.4976 6.177103,-2.07525 11.818014,-5.59257 16.984448,-9.53011 3.528531,-3.40382 6.350253,-6.72327 5.603079,-11.929 -1.156704,-2.91938 -2.511235,-3.84284 -5.530075,-4.66639 -4.144463,-1.09498 -8.487865,-2.14793 -11.749273,-5.09722 -2.448171,-2.6543 -3.275555,-4.5168 -2.079765,-8.05062 1.562261,-3.50997 4.053197,-6.31933 7.299994,-8.4024 -2.4116,1.35922 -4.855712,2.66231 -7.234803,4.07766 -0.708102,0.42126 1.466029,-0.75407 2.217192,-1.09262 3.09367,-1.39431 6.382329,-2.26817 9.514419,-3.56446 3.754626,-2.06013 7.533551,-4.07656 11.26385,-6.18038 2.150918,-1.21308 3.173152,-3.01164 3.046332,-5.4698 -0.19261,-3.0713 -0.956394,-6.03831 -3.110082,-8.34826 -1.215164,-1.08664 -1.462061,-1.41579 -2.910145,-2.25253 -3.088222,-1.78445 -6.649583,-2.54657 -9.977433,-3.73227 -3.393916,-1.09663 -10.397188,-2.96753 -12.879345,-5.55679 -0.294423,-0.30713 -0.46486,-0.71271 -0.697291,-1.06907 -0.07786,-0.30878 -0.210232,-0.60875 -0.233574,-0.92634 -0.155382,-2.11406 1.608566,-4.01698 2.956065,-5.38123 3.437827,-2.70752 3.310226,-2.47909 -5.928645,2.95567 -0.710134,0.41774 1.468281,-0.75063 2.2255,-1.07531 2.679224,-1.14878 5.508014,-1.88867 8.240273,-2.89098 3.966263,-2.14874 7.960135,-4.24727 11.898786,-6.44621 3.54582,-1.97963 5.991675,-5.03115 6.666332,-9.08149 0.0463,-0.73975 0.15667,-1.47825 0.13907,-2.21924 -0.0874,-3.67863 -1.671991,-7.0471 -4.284676,-9.59084 -1.557511,-1.11907 -1.955298,-1.52537 -3.76636,-2.31135 -3.411072,-1.48036 -7.135289,-2.04377 -10.67721,-3.10075 -3.408186,-1.07238 -6.828774,-1.55411 -6.356448,-5.88683 0.89521,-3.85475 2.834166,-7.25849 6.02098,-9.68966 3.685733,-2.53879 4.007371,-2.68833 -5.998562,3.19278 -0.567314,0.33345 1.176422,-0.59018 1.769322,-0.87567 2.187609,-1.05337 1.477658,-0.70485 3.74393,-1.62802 0.648992,-0.26436 1.295821,-0.53399 1.94373,-0.80099 5.511395,-2.54254 3.165621,-1.3924 13.110818,-7.30404 2.454558,-1.45904 4.284546,-3.68617 5.224213,-6.37055 0.102167,-0.61381 0.276717,-1.2199 0.306527,-1.84144 C 91.6456,97.569027 90.243436,94.951372 88.036001,93.285361 87.510884,93.006684 87.012364,92.670744 86.46066,92.449337 82.711523,90.944772 78.465458,91.123636 74.563875,90.329923 71.624314,89.719042 67.28981,88.920948 65.364032,86.3204 c -0.242795,-0.327866 -0.368385,-0.728064 -0.552577,-1.092094 -0.01297,-0.392573 -0.09097,-0.788403 -0.03887,-1.177718 0.43952,-3.284445 3.502109,-5.66995 5.835962,-7.630266 2.777061,-1.934409 12.132945,-7.685897 -1.325121,0.286512 -0.897427,0.531624 1.82988,-1.002276 2.757734,-1.478807 9.603748,-4.932296 -11.055239,6.486105 14.41268,-7.974875 3.830246,-2.493131 6.084674,-4.312187 4.356423,-9.112271 -1.925788,-4.627303 -4.389453,-7.819204 -8.864069,-10.287598 -1.896258,-0.927004 -2.202159,-1.184502 -4.216842,-1.752941 -3.018144,-0.851564 -6.192091,-1.165143 -9.130514,-2.326521 -1.949503,-0.844621 -5.922058,-2.517846 -5.72702,-5.27405 0.02307,-0.325911 0.205457,-0.620313 0.308184,-0.930468 0.249029,-0.317159 0.458684,-0.669645 0.747083,-0.951479 1.830088,-1.788438 12.478991,-7.300278 -6.850258,3.637425 -0.569489,0.34103 1.202541,-0.563118 1.813298,-0.823105 1.619266,-0.689285 2.753238,-1.083538 4.420206,-1.699117 7.066375,-2.6167 7.284783,-3.046333 16.276491,-8.266398 1.759519,-1.021475 3.151847,-2.338264 4.049763,-4.173527 0.13245,-0.502322 0.318894,-0.993434 0.397351,-1.506966 0.387563,-2.536742 -0.412535,-5.185239 -1.496171,-7.440031 C 80.690622,13.520879 78.301839,11.429039 75.031063,10.394532 71.631307,8.9565191 68.111759,7.746982 65.0646,5.60683 c 0,0 -9.43847,6.043349 -9.43847,6.043349 z" />
    <path
       style="fill:#ff0050;fill-opacity:1;stroke:#b17a00;stroke-width:0.332356;stroke-opacity:1"
       d="m 57.017703,160.21381 c -4.307413,2.22203 -0.889296,5.45857 -0.557089,8.63271 0.173993,1.66235 -0.40325,3.27816 0.765914,4.69818 0.755104,0.91713 2.010544,1.01161 2.720551,1.96714 0.949179,1.27741 0.920513,3.08199 2.522596,3.78304 1.589062,0.6951 3.233074,-0.40039 4.784547,0.0701 3.989877,1.20961 4.038267,2.25279 7.997277,0.10258 3.12457,-1.69716 6.46894,1.11223 6.71771,-4.75076 4.1877,-0.23515 2.79809,-3.22214 3.83006,-6.21555 0.74599,-2.16335 2.1372,-3.7013 1.44367,-6.21556 -0.34996,-1.26841 -1.36817,-2.15659 -1.65447,-3.45308 -0.82372,-3.72922 -0.63339,-5.48682 -4.89882,-5.52494 -0.11389,-5.73866 -3.1121,-3.47304 -6.39783,-4.25188 -1.87423,-0.44425 -2.97079,-2.31934 -5.117005,-1.86616 -1.294153,0.27328 -1.965604,1.69674 -3.212762,1.95249 -1.535248,0.31482 -2.900227,-0.73258 -4.287404,0.60987 -0.942432,0.91208 -0.79019,2.44262 -1.646358,3.34868 -0.690227,0.73038 -1.839236,0.65425 -2.630236,1.24614 -1.944459,1.45509 -1.349298,3.99978 -0.380351,5.86703 m 12.168464,-11.18547 5.105652,1.95645 3.76564,-0.52328 1.85293,3.77228 3.73951,1.60079 0.43604,4.03393 1.87328,3.45308 -1.77923,4.20234 -0.39312,4.62595 -2.67589,1.64046 -2.06349,3.71929 -3.47609,-0.16734 -3.8387,2.12144 -4.158589,-2.00261 -4.124039,0.25231 -2.411268,-3.79011 -2.684268,-1.76839 -0.218195,-4.49088 -1.944785,-3.99208 1.92798,-3.46323 -0.132052,-3.99394 3.091811,-1.77716 1.83394,-3.48027 3.688604,0.0379 2.584329,-1.96684 m -7.370098,15.32918 h -1.27956 c 0.881134,10.82574 18.24301,12.47265 20.04799,1.38123 0.60638,-3.72608 -0.19206,-7.72793 -3.10637,-10.08695 -4.21543,-3.41223 -11.859867,-2.59643 -13.490193,3.52609 -0.790288,2.96779 0.174947,6.83911 2.655384,8.55519 3.490239,2.41467 9.008179,1.0861 9.733459,-3.72087 0.79371,-5.26036 -7.29205,-8.4035 -8.0849,-2.76219 -0.276568,1.96799 1.192969,3.83438 3.1066,3.29773 0.52183,-0.14634 1.66323,-0.93419 1.0278,-1.64153 -0.61095,-0.68012 -1.74151,0.25466 -2.40116,-0.49852 -0.566592,-0.64697 -0.05731,-1.5474 0.47689,-1.98552 2.39675,-1.96544 5.39954,1.69933 4.2082,4.27557 -2.88283,6.23407 -11.318897,0.68344 -9.33263,-5.17455 2.937525,-8.66362 14.91839,-3.44234 13.97326,4.83432 -1.18557,10.38252 -15.487628,9.19646 -17.53477,0 z"
       id="path3080" />
    <path
       style="fill:#ff0050;fill-opacity:1;stroke:#b17a00;stroke-width:0.332356;stroke-opacity:1"
       d="m 92.363992,67.375973 c -4.307413,2.22203 -0.889296,5.45857 -0.557089,8.63271 0.173993,1.66235 -0.40325,3.27816 0.765914,4.69818 0.755104,0.91713 2.010544,1.01161 2.720551,1.96714 0.949179,1.27741 0.920513,3.08199 2.522596,3.78304 1.589062,0.69509 3.233076,-0.4004 4.784546,0.0701 3.98988,1.20961 4.03827,2.2528 7.99728,0.10259 3.12457,-1.69716 6.46894,1.11223 6.71771,-4.75076 4.1877,-0.23516 2.79809,-3.22214 3.83006,-6.21555 0.74599,-2.16336 2.1372,-3.7013 1.44367,-6.21556 -0.34996,-1.26841 -1.36817,-2.15659 -1.65447,-3.45308 -0.82372,-3.72923 -0.63339,-5.486821 -4.89882,-5.524943 -0.11389,-5.738656 -3.1121,-3.473036 -6.39783,-4.251882 -1.87423,-0.444244 -2.97079,-2.319338 -5.117,-1.866154 -1.29416,0.273275 -1.96561,1.696738 -3.21277,1.952486 -1.535247,0.314817 -2.900226,-0.73258 -4.287403,0.609875 -0.942432,0.912071 -0.79019,2.442618 -1.646358,3.348672 -0.690227,0.730386 -1.839236,0.654246 -2.630236,1.246136 -1.944459,1.4551 -1.349298,3.99979 -0.380351,5.86704 m 12.168468,-11.185475 5.10565,1.956453 3.76564,-0.523281 1.85293,3.772283 3.73951,1.60079 0.43604,4.03393 1.87328,3.45308 -1.77923,4.20234 -0.39312,4.62595 -2.67589,1.64046 -2.06349,3.71928 -3.47609,-0.16734 -3.8387,2.12145 -4.15859,-2.00262 -4.12404,0.25232 -2.411268,-3.79011 -2.684268,-1.76839 -0.218195,-4.49089 -1.944785,-3.99207 1.92798,-3.46324 -0.132052,-3.99394 3.091811,-1.77716 1.83394,-3.480262 3.688607,0.03785 2.58433,-1.966842 m -7.370102,15.329184 h -1.27956 c 0.881134,10.82574 18.243012,12.47264 20.047992,1.38123 0.60638,-3.72609 -0.19206,-7.72794 -3.10637,-10.08695 -4.21543,-3.41223 -11.85987,-2.596436 -13.490195,3.52609 -0.790288,2.96779 0.174947,6.8391 2.655385,8.55518 3.49024,2.41468 9.00818,1.08611 9.73346,-3.72086 0.79371,-5.26036 -7.29205,-8.4035 -8.0849,-2.7622 -0.27657,1.968 1.19297,3.83438 3.1066,3.29774 0.52183,-0.14634 1.66323,-0.93419 1.0278,-1.64153 -0.61095,-0.68012 -1.74151,0.25466 -2.40116,-0.49853 -0.56659,-0.64696 -0.0573,-1.54739 0.47689,-1.98552 2.39675,-1.96543 5.39954,1.69934 4.2082,4.27557 -2.88283,6.23408 -11.318899,0.68345 -9.33263,-5.17455 2.93752,-8.66361 14.91839,-3.44234 13.97326,4.83433 -1.18557,10.38252 -15.48763,9.19646 -17.534772,0 z"
       id="path3080-2" />
    <rect
       style="fill:#039e00;fill-opacity:1;stroke:#b17a00;stroke-width:0.201463;stroke-miterlimit:4;stroke-dasharray:none;stroke-opacity:1"
       id="rect3124"
       width="21.351791"
       height="21.518745"
       x="54.986259"
       y="68.806213" />
    <rect
       style="fill:#039e00;fill-opacity:1;stroke:#b17a00;stroke-width:0.223208;stroke-miterlimit:4;stroke-dasharray:none;stroke-opacity:1"
       id="rect3124-9"
       width="20.606052"
       height="27.370695"
       x="91.18354"
       y="184.62939" />
  </g>
</svg>
