<svg xmlns="http://www.w3.org/2000/svg">
<symbol id="jiji" viewBox="0 0 236.45 257">
  <title>Jiji</title>
  <g>
    <path d="M274.9,254.81a2.75,2.75,0,0,0-.22-.26l-.25-.29c-.22-.23-.44-.44-.66-.65l-.14-.15-.1-.06-.63-.38-.06,0-.35-.11-.18,0a3.8,3.8,0,0,1-.55,0,4.68,4.68,0,0,0-.73.21l-.33.16-.33.21a2.45,2.45,0,0,1-.34.86c-.15.25-.28.5-.42.76h0l-.13.36a13,13,0,0,0-.5,1.93c-.06.31-.11.61-.16.92,0,.08-.08.74-.09.87-.07.82-.1,1.65-.11,2.48a30.62,30.62,0,0,0,1.49,10.2c.12.37.25.74.38,1.1,0,.09.25.63.29.75.25.56.52,1.11.82,1.64.2.35.42.69.64,1l.15.23.17.18a10.17,10.17,0,0,0,1,1s.48.32.59.38a1.3,1.3,0,0,0,.26.14c.24.07.5.12.74.2l.38,0,.45,0,.9-.23.18-.07.4-.17.39-.23c.11-.12.4-.37.47-.44l0,0,.19-.27c.14-.23.25-.47.38-.7a1.18,1.18,0,0,1,.08-.12c0-.05,0-.11.06-.22a18.44,18.44,0,0,0,.51-1.94s.05-.32.06-.41l0-.22q.06-.57.09-1.14a27.53,27.53,0,0,0-1.15-9.34A22.42,22.42,0,0,0,274.9,254.81Z" transform="translate(-121.44 -105)"/>
    <path d="M330,304v-4.83l27.89-1.5-.27-5L330,294.16V285l-1-8,14-52,6-41.5V142l-3-22-2-6-3-5-5-2-7,1-20,18-19,19-15,20-26,42H234l-7.5-16.42L214,169l-17-24-19-22-13-13-12-5-5,8-3,30.61V198l5,40,7,24-7,29,.32,3.41L122,292.88l-.27,5,29,1.56,1,10.8-30.39,4.22.69,5L153.76,315l6,10.28-22.66,7,1.47,4.78,23.77-7.32L166,336l25,16,30.81,10H244l22-3,19-7,25-14,4.72-5.9,22.42,6.9,1.47-4.78-20.53-6.32L322,323l3.46-8.22,31.36,4.35.69-4.95-30-4.17ZM160.36,121.71c-1.48-1.25.65-3.36,2.12-2.13a63.72,63.72,0,0,1,12.62,15c6.27,9.94,10.59,20.91,15.16,31.69,5.72,13.47,11,27.12,16.35,40.74.51,1.3-1.16,2.23-2.21,1.69-1.35-.7-2.57-1.63-3.86-2.43a8.12,8.12,0,0,0-3.89-1.65,3.63,3.63,0,0,0-2.07.46c-.25.21-.17.09-.16.28.08,1,1.86,1.92,2.59,2.3,1.62.84.41,3-1.15,2.74s-4.88-.66-5.73,1.08a1.32,1.32,0,0,0,.32,1.28,7.23,7.23,0,0,0,3.11,2.1c1.05.44,1.67,2.13.36,2.74-5.79,2.69-12.09,4.89-16.73,9.45-1.38,1.35-3.5-.77-2.12-2.13,4.17-4.09,9.51-6.4,14.77-8.75-1.92-1.35-3.43-3.26-2.53-5.68.76-2,2.67-2.9,4.74-3.16a4.59,4.59,0,0,1-.54-1.27c-.46-1.9.79-3.38,2.51-4,3.1-1.1,5.65.17,8.12,1.73-2.48-6.32-4.94-12.65-7.46-19-4.68-11.73-9.41-23.52-14.77-35C175.05,139.47,169.23,129.16,160.36,121.71Zm53.79,151a2.09,2.09,0,0,1-1.27,1.54,44.15,44.15,0,0,1-13.17,10.88c-5.25,2.95-11.7,5.56-17.84,4.85a13.22,13.22,0,0,1-10.61-7.56A29.91,29.91,0,0,1,168.89,269a42.62,42.62,0,0,1,2.54-14.63A35.2,35.2,0,0,1,180.79,241c4.08-3.66,8.45-6.93,14.11-7.21a19.13,19.13,0,0,1,14,5.37c4.2,4.12,5.4,10,5.94,15.62A74.77,74.77,0,0,1,214.15,272.66ZM240,315.1a1.54,1.54,0,0,1-2-.54,66.61,66.61,0,0,1-4-6.6,51.48,51.48,0,0,0-3.9,5.83,1.5,1.5,0,0,1-2.59-1.52,57.55,57.55,0,0,1,5.65-8,1.51,1.51,0,0,1,2.36.3c1.63,2.87,3.12,5.82,5,8.52A1.51,1.51,0,0,1,240,315.1Zm3.69-39.68a2.76,2.76,0,0,1-2,2.25,10.65,10.65,0,0,1-4.05.41,40.82,40.82,0,0,1-4.94-.57c-1.46-.25-2.92-.55-4.38-.83-.49-.1-1-.2-1.49-.27a2.42,2.42,0,0,0-.43-.05h-.19a.5.5,0,0,1-.27-1h0a3.31,3.31,0,0,1,2.08-2.82,13.89,13.89,0,0,1,5.07-1.28,22,22,0,0,1,5.19.1,9.8,9.8,0,0,1,4,1.24A2.8,2.8,0,0,1,243.67,275.42ZM307.18,273a19.24,19.24,0,0,1-4.3,11.31c-2.88,3.29-7.22,4.78-11.49,4.94-6.11.23-12.32-1.56-17.8-4.15-4.92-2.32-9.81-5.74-12.72-10.45a2.23,2.23,0,0,1-3.15-1.61,39.6,39.6,0,0,1-.76-5.52,43,43,0,0,1,4.28-21.34,19.74,19.74,0,0,1,6.07-7.73,17,17,0,0,1,8.19-2.94c5.73-.65,12.05,1.16,17,4a24.47,24.47,0,0,1,8,8.34C305,255.12,307.9,264.43,307.18,273ZM316,136.5c-17.34,18-31.57,39.77-39.35,63.66a18.89,18.89,0,0,1,5.72-2.08c1.43-.23,3.07-.08,3.81,1.37a3.47,3.47,0,0,1,.2,2.38,10.5,10.5,0,0,1,3.92-.18,1.45,1.45,0,0,1,1.05,1c.7,3.44-1.62,5.91-3.26,8.64,7.65,3.9,13.71,10.45,19.91,16.24,1.41,1.33-.71,3.44-2.12,2.13-6.37-6-12.55-12.72-20.6-16.42a1.51,1.51,0,0,1-.54-2,30.67,30.67,0,0,1,2.36-3.82,8.08,8.08,0,0,0,1.37-2.92,13.92,13.92,0,0,0-4.36,1.2c-1.29.51-2.27-1.16-1.69-2.2a8.61,8.61,0,0,0,1-2.37.68.68,0,0,0,0-.15h-.38a7.66,7.66,0,0,0-1.38.33,27.85,27.85,0,0,0-6.92,3.46,1.51,1.51,0,0,1-2.2-1.7,145.72,145.72,0,0,1,7.88-20.66c11.35-24.25,28.73-45.88,49.41-62.84,1.48-1.21,3.61.9,2.12,2.13A183.39,183.39,0,0,0,316,136.5Z" transform="translate(-121.44 -105)"/>
    <path d="M202.83,258.49c-.05-.45-.1-.91-.16-1.36l0-.17c0-.18,0-.36-.08-.53a20.85,20.85,0,0,0-.81-3.58,7.35,7.35,0,0,0-.92-1.89c-.05-.07-.11-.13-.17-.2h0c-.5-.19-1-.35-1.49-.5l-.13,0a1.84,1.84,0,0,0-.63.26,14,14,0,0,0-3.68,3.27c-1.67,4.94-3.08,10-2.69,15.14a13.65,13.65,0,0,0,.72,3.27,6.54,6.54,0,0,0,1.94,2.64,7.59,7.59,0,0,0,2.8,1.29c.21.06.42.1.64.14l.53,0c.2,0,.4,0,.6,0l.15,0,.36-.11c.06,0,.31-.12.41-.18l.27-.18.24-.21c.06-.05.26-.28.36-.39l.2-.28a10.53,10.53,0,0,0,.65-1.19h0l.1-.27c.08-.22.15-.43.22-.65.15-.5.28-1,.39-1.5s.22-1.11.31-1.68c0-.11,0-.23,0-.35s.05-.52.08-.79a48.57,48.57,0,0,0,0-6.93C203,260.55,202.94,259.52,202.83,258.49Z" transform="translate(-121.44 -105)"/>
  </g>
</symbol>

<symbol id="kiki" viewBox="0 0 254 327.5">
  <title>Kiki</title>
  <path d="M358,206l-11-15L335.5,180.5l5-8,6.48-19-4.48-22-13-14,4-19-7-16-11-9H299.76l-21.26,13-20,17-11.26,27.84v19.48l-8.74-.32L234,124.37,221.5,94.5,198,70.18,182.5,67.5l-11,7-8,10-3,10L147.5,105l-17,19.48-5,21v19.13l10,18.87,11.76,4.92L141.05,191,130,201l-13,24-6,33-7,41.34V360l13-3,5,10,9-5,15,8,4-6,8,6h22l9-1,16.31,13L234,395h10l13-4,19-13,14-12,2.79,6,8.21-5,3,5,4.27-3.76h8.52v-7H326V348.11l5,6.89,4-8-2-22-7-33,9.5-11.24L340,265l6.75,4.5L351,258l-4-22.92L341,208l17,11.6ZM156.43,304.38a1.54,1.54,0,0,1-1.85,1.05,66.73,66.73,0,0,1-11.61-3.1,1.54,1.54,0,0,1-1.05-1.84,1.52,1.52,0,0,1,1.85-1.05,67.39,67.39,0,0,0,11.61,3.1A1.51,1.51,0,0,1,156.43,304.38Zm1-11.61a10,10,0,0,0-1.32-2.79,4.64,4.64,0,0,0-.75-.91c-.17-.17-.35-.34-.54-.5l-.05,0,0,0-.19-.14a6.43,6.43,0,0,0-4.41-1.08l-.62,0h-.1l-.25,0a10.5,10.5,0,0,0-1.14.26c-.46.12-.9.26-1.34.42a7.65,7.65,0,0,0-1,.41,24,24,0,0,0-4.61,2.86,25.28,25.28,0,0,0-2.09,1.92q-.54.56-1,1.14l-.42.51-.23.29h0l-.06.09a20.09,20.09,0,0,0-1.48,2.27,11.53,11.53,0,0,0-1,2.24c-.14.41-.26.83-.36,1.25,0,.18-.07.37-.11.56s0,.19-.05.28a9.29,9.29,0,0,0-.06,1.29c0,.19,0,.37,0,.55l0,.28v0a6.55,6.55,0,0,0,2,3.85,13.5,13.5,0,0,0,5.33,3,37.62,37.62,0,0,0,9.59,1.62c1.93.11,1.93,3.11,0,3-6.22-.36-14.17-1.38-18.16-6.83-5.34-7.28,1.71-16.54,7.66-20.76,3.14-2.22,7.15-4,11.08-3.65,4.42.43,7.32,3.57,8.61,7.66C160.89,293.82,158,294.6,157.41,292.77Zm113-140.93C273,142,283,137.23,291.62,133.76a1.5,1.5,0,0,1,1.84,1.05,1.55,1.55,0,0,1-1,1.85c-7.37,3-16.19,7-18.81,15.14-.09.28-.19.55-.27.84C272.85,154.51,270,153.71,270.44,151.84Zm-74.44-21c9,5.77,17.48,12.87,23,22.21a1.5,1.5,0,0,1-2.59,1.52c-5.25-8.91-13.3-15.64-21.92-21.14C192.86,132.37,194.37,129.78,196,130.82Zm-15.72,191a1.53,1.53,0,0,1-2.05.54,1.51,1.51,0,0,1-.54-2.05c1.14-1.52,2.14-3.13,3.27-4.66a21.53,21.53,0,0,1,4.23-4.4,1.5,1.5,0,1,1,1.52,2.59c.2-.15-.16.13-.16.13l-.23.19c-.18.15-.36.31-.53.48-.33.3-.64.62-.94,1s-.58.66-.86,1l-.17.22c.17-.21,0,0-.06.08l-.37.5C182.33,318.8,181.36,320.32,180.28,321.77Zm8.12-3.12-.35.4a2.54,2.54,0,0,1-.29.36h0l-.16.21-.28.42c-.17.27-.33.54-.47.82-.06.13-.11.26-.18.39.2-.4,0,.05,0,.16a1.53,1.53,0,0,1-1.84,1,1.51,1.51,0,0,1-1.05-1.84c1-3,3.53-5.36,6.11-7.09a1.52,1.52,0,0,1,2,.53,1.54,1.54,0,0,1-.54,2.06c-.29.19-.58.4-.86.61h0l-.19.16-.38.31A17,17,0,0,0,188.4,318.65Zm7.13-1.22a15.41,15.41,0,0,0-1.35,1.56,32.36,32.36,0,0,1-2.52,3.09,1.54,1.54,0,0,1-2.12,0,1.52,1.52,0,0,1,0-2.13,18.28,18.28,0,0,0,1.35-1.55,29.8,29.8,0,0,1,2.52-3.09,1.5,1.5,0,0,1,2.12,2.12Zm1.51-39a12.4,12.4,0,0,1,10.88-5.58,12.59,12.59,0,0,1,10.29,6.36,1.5,1.5,0,0,1-2.59,1.51,9.52,9.52,0,0,0-7.7-4.87,9.36,9.36,0,0,0-8.29,4.1C198.55,281.55,196,280.05,197,278.45ZM207.5,310c-4.69,0-8.5-5.82-8.5-13s3.81-13,8.5-13,8.5,5.82,8.5,13S212.19,310,207.5,310Zm61,38.89-10,8.51-14.37,3.1L231,357.4l-11.19-5-3.81-5,3.81-3.1H268.5ZM256,301l5.05-10.52L258.52,310Zm8.13-48.37a1.5,1.5,0,0,1-2.05-.53,73.42,73.42,0,0,0-16.25-18.74c-3.52,4.87-6.41,10.16-9.92,15-4,5.6-8.85,10.51-15.14,13.51a1.52,1.52,0,0,1-2.05-.53c-3.8-6.86-7.41-13.84-12.05-20.18-6.19,6.35-9.14,15.25-15.79,21.25a1.52,1.52,0,0,1-2.12,0,64,64,0,0,1-8.67-14.62c-3.79,4.39-6.53,9.6-9.88,14.32-1.1,1.56-3.71.06-2.59-1.51,3.93-5.54,7-11.69,11.85-16.57a1.51,1.51,0,0,1,2.36.31A69.31,69.31,0,0,0,190,259.17c6.21-6.35,9.17-15.27,15.82-21.28a1.54,1.54,0,0,1,2.36.3c4.9,6.35,8.62,13.43,12.47,20.42a39.07,39.07,0,0,0,13.11-12.28c3.65-5.2,6.67-10.82,10.54-15.88a1.53,1.53,0,0,1,2.35-.3,75.38,75.38,0,0,1,17.12,19c8.62-7.1,13.73-17.73,19.24-27.19a1.5,1.5,0,0,1,2.59,0c7,16.4,10.93,34.12,20.13,49.54a1.5,1.5,0,0,1-2.59,1.52c-8.72-14.63-12.7-31.27-19.05-46.93C278.55,235.71,273.11,245.82,264.13,252.63Zm6.23,27.87a1.5,1.5,0,0,1-.54-2.05c5.44-7.06,17.27-5.74,21.94,1.55,1.05,1.63-1.55,3.13-2.59,1.51-3.35-5.21-12.71-6.81-16.76-1.54A1.54,1.54,0,0,1,270.36,280.5ZM281.5,310c-4.69,0-8.5-5.82-8.5-13s3.81-13,8.5-13,8.5,5.82,8.5,13S286.19,310,281.5,310Zm11,8.68a1.55,1.55,0,0,1-2.06.53,1.51,1.51,0,0,1-.53-2l4.64-7a1.54,1.54,0,0,1,2.05-.53,1.5,1.5,0,0,1,.54,2Zm7-.88c0,.06-.27.54-.1.21a5.89,5.89,0,0,0-.29.8,7.73,7.73,0,0,0-.19.8s0,.06,0,.09v.08c0,.16,0,.31,0,.46a1.5,1.5,0,0,1-3,0c0-2.89,1.76-5.41,3.31-7.72a1.53,1.53,0,0,1,2.05-.54,1.51,1.51,0,0,1,.54,2,34.19,34.19,0,0,0-2.07,3.37Zm6.68-1.14-.3.31c-.06.07-.28.26-.28.34s.19-.25.06-.07l-.12.16c-.08.11-.15.22-.22.33-.32.48-.6,1-.87,1.48-.61,1.12-1.2,2.26-1.91,3.34a1.53,1.53,0,0,1-2.05.53A1.51,1.51,0,0,1,300,321c1.41-2.13,2.29-4.65,4.11-6.49a1.5,1.5,0,0,1,2.12,2.12Z" transform="translate(-104 -67.5)"/>
</symbol>

<symbol id="tombo" viewBox="0 0 266.78 283.15">
  <title>Tombo</title>
  <g>
    <path d="M377.5,225.5l-18-14,14-21-17,18-3-31-10-23-14-15-22-13-23-9H260.13l-8.63-8-1,6h-6l-15-27-2,11,8,19-9-8-9-6,3,14-5,2-18.86-32-2.14,32-14-15,1,13-10.4-30-6.6,21,1,28-15-19-23-4,16,13,13,18-17-6-12,4.37,15,6.63,9,8-12,6-23,10h14l18-8-15,15-3,8,3,10,12-22-5,17-2,11,4,6-1,11,5,12-4,9-6,16,5.95,18.5,8.05,7.5v7l1,9,6,4v16.43l7,14.57,13,13,18,12,20,8h14.43l22.57-7,21-11,13.72-11,5.42-3,9.86,6-4-15,8.08,9-.08-17,15-9,11-11,8.14-22.5,15.86-20.5,6-25-6-16ZM226.68,333c-5.4,1.58-11.09,1.63-16.66,1.63a2.5,2.5,0,1,1,0-5c5.3,0,10.34,0,15.33-1.45a2.5,2.5,0,1,1,1.33,4.82Zm28-22.17A49.59,49.59,0,0,1,243,317a78.83,78.83,0,0,1-25,4.89c-7.82.31-16-.37-23.35-3.14-1.8-.68-1-3.58.79-2.9a48.07,48.07,0,0,0,11.89,2.72,77.74,77.74,0,0,0,24.48-1.42c7.54-1.63,15-4.3,21.32-8.89C254.74,307.11,256.23,309.72,254.69,310.84ZM209,282.36a1.49,1.49,0,0,1,.9-.69,1.59,1.59,0,0,1,1.15.15l.15.07a23.18,23.18,0,0,0,2.85.81,1.49,1.49,0,0,1,.89.69,1.54,1.54,0,0,1,.16,1.15,1.5,1.5,0,0,1-1.85,1,17.81,17.81,0,0,1-3.71-1.18,1.5,1.5,0,0,1-.54-2.05Zm115.13,6.46c-2.47,3-4.91,5.89-6.48,9.5a1.5,1.5,0,0,1-2.05.54,1.55,1.55,0,0,1-.54-2.05c1.64-3.78,4.33-7,6.95-10.11a1.5,1.5,0,0,1,2.12,0A1.54,1.54,0,0,1,324.11,288.82Zm14.32-13.57a1.5,1.5,0,1,1-2.89-.79c.13-.54.26-1.08.37-1.63l.15-.81.06-.41s0-.13,0-.2a21.89,21.89,0,0,0,.08-3.24s0-.06,0-.1,0-.28-.08-.42-.15-.45-.21-.69h0a3.84,3.84,0,0,0-.18-.35c-.05-.08-.11-.16-.16-.25a16.51,16.51,0,0,0-9.14-.05c-5.22,1.56-9.18,5.8-12.12,10.2A70.63,70.63,0,0,0,307,291.77c-.66,1.8-3.55,1-2.9-.8a94.71,94.71,0,0,1,4-9.54c2.61-5.29,5.94-10.45,10.56-14.19-3.23-.6-6.41-1.49-9.58-2.38a134.91,134.91,0,0,1-1.31,13.75c-.29,1.9-3.18,1.09-2.89-.8.37-2.46.65-4.94.86-7.42.18-2.11.3-4.23.4-6.34-.78-.22-1.56-.43-2.35-.62-4.78-1.2-10.07-2.41-15-1.17-.31,1.9-.65,3.8-1,5.69-.58,3.14-1.11,6.21-2.7,9.05-2.54,4.55-6.88,7.08-11.67,8.41a31.66,31.66,0,0,1-9.89,1.8,58.35,58.35,0,0,1-16.61-1.82c-6.22-1.29-12.51-3.54-17.36-7.67-4.34-3.69-6-9-6.62-14.39a2.63,2.63,0,0,1-1.8-.25q-.42-.24-.87-.45l-.41-.19-.13-.05c-.63-.24-1.27-.46-1.93-.64l-.44-.1a23.59,23.59,0,0,0-11.59.72l-.32.07a39.69,39.69,0,0,1-2.77,8.83c.31-.52.61-1,.88-1.56a1.51,1.51,0,0,1,2.05-.54,1.53,1.53,0,0,1,.54,2.05c-.62,1.23-1.35,2.39-2.06,3.56-.31.53-.63,1.06-.91,1.61a5.74,5.74,0,0,0-.57,1.34,7.23,7.23,0,0,0-.21.8.11.11,0,0,1,0,.06v.07c0,.13,0,.26,0,.39s0,.23,0,.34a.74.74,0,0,0,0,.12c0,.13.08.26.11.39a.69.69,0,0,1,.05.13l0,0a7.35,7.35,0,0,0,3,2.79,1.5,1.5,0,0,1-1.51,2.59,10.25,10.25,0,0,1-4.06-3.8,6,6,0,0,1-.47-4.18,11,11,0,0,1,.69-2,20.75,20.75,0,0,1-1.73,2.14c-4.09,4.34-9.9,5.86-15.66,6.3-1,.08-2,.12-3,.14-.42.08-.83.15-1.25.21a34.4,34.4,0,0,1-12.82-.58c-.76-.09-1.51-.18-2.27-.3-6.06-.93-12.17-3.67-14.92-9.48a29.63,29.63,0,0,1-2.51-9.12,34.12,34.12,0,0,1,.79-17.69,31.86,31.86,0,0,1,3.19-9.1,2.33,2.33,0,0,1,3.63-.63l.2-.07c1-.26,2-.48,3-.67,1.47-.29,2.94-.51,4.43-.7q5.14-1.09,10.38-1.75a63.1,63.1,0,0,1,18.46.12c5.12.89,11.07,3.1,13.93,7.75,2.59,4.2,2.79,9.62,2.27,14.63a25.11,25.11,0,0,1,16.32,1.59,55.56,55.56,0,0,1,3-19.67,2.63,2.63,0,0,1,2.36-1.83c1-.49,2.05-.94,3.1-1.34a72.82,72.82,0,0,1,19.53-4,82.52,82.52,0,0,1,21.12.64c5.59.95,12.08,2.74,15.31,7.79,3,4.74,3,10.95,2.48,16.48a88.42,88.42,0,0,1,16.74,2.24c.15-6.21.08-12.44,0-18.63a138.11,138.11,0,0,0-1.08-15.75c-.66-5.21-1.47-10.37-2-15.6-.79-8.62-1.06-17.47-3.26-25.88a35.14,35.14,0,0,0-3.61-9.29,10.62,10.62,0,0,0-2.66-3.19,2.91,2.91,0,0,0-2.35-.61c-1.18.12-2.34.18-3.53.23-10.44.45-20.79,2.36-31.17,3.5-2.87.32-5.73.81-8.6,1.19a304,304,0,0,1-31.59,2.95A60.54,60.54,0,0,1,203,176.8,10.54,10.54,0,0,1,198.6,175c-6.49,10.34-12,21.83-11.6,34.29.05,1.59-2,1.89-2.8.75-3.42-4.86-4.47-11.46-5.24-17.23A39.55,39.55,0,0,1,179,180c-.79.93-1.56,1.87-2.29,2.84a79.59,79.59,0,0,0-10.15,17.67,60.32,60.32,0,0,0-3.62,11.9c8-2.93,17.84-1.12,25.51,1.73a2.55,2.55,0,0,1,1.74,3.08,2.51,2.51,0,0,1-3.07,1.74c-7.54-2.8-17.44-4.84-24.87-.73,0,.39-.06.77-.06,1.16a1.52,1.52,0,0,1-2.8.76c-.12-.2-.21-.41-.32-.61a2.66,2.66,0,0,1-1.83-1.21,2.42,2.42,0,0,1,.27-2.82,24.52,24.52,0,0,1-.58-8.1c.68-8.14,3.89-16.22,8.17-23.12a81.84,81.84,0,0,1,6.52-9.2c2.41-2.89,5.34-5.86,9.05-6.95,1.86-.55,2.65,2.35.8,2.89-3.77,1.11-6.68,4.74-9,7.74a67,67,0,0,0-10.24,18.43c-1.61,4.62-3,10.07-2.34,15.13.25-1.36.52-2.71.87-4.05a75,75,0,0,1,8.36-19.55,73.56,73.56,0,0,1,12.67-16.08,1.5,1.5,0,0,1,2.35,1.82c-3.21,5.67-3.12,12-2.25,18.32a54.55,54.55,0,0,0,2.27,10.63c1.21-11.58,6.85-22.33,13.14-32a1.51,1.51,0,0,1,2.79.75v.13s0,.08,0,.12l.13.15a1.8,1.8,0,0,0,.19.2h0l.05,0c.22.14.44.26.67.38l.17.09s0,0,.05,0l.46.16c.34.12.69.21,1,.3a27.57,27.57,0,0,0,5.31.69,119.15,119.15,0,0,0,15.35-.29c9.68-.66,19.36-1.84,28.9-3.2,6-.87,12.09-1.5,18.13-2.32,5.24-.71,10.48-1.39,15.76-1.69,1.25-.07,2.51,0,3.76-.15a9.12,9.12,0,0,1,3.17-.07,8.12,8.12,0,0,1,3.69,2.53,25.42,25.42,0,0,1,4.64,8.67,55.21,55.21,0,0,1,2.3,9c1.67,9.94,1.87,20.07,3.2,30,.7,5.27,1.52,10.47,1.85,15.78.32,5.1.29,10.2.3,15.31,0,3.72,0,7.45-.09,11.17,4.94,1.19,9.84,2.57,14.72,3.85a1.36,1.36,0,0,1,.89.66,19.08,19.08,0,0,1,7.66-.95,1.39,1.39,0,0,1,.86-.28,6,6,0,0,1,3.69,1.14l0,0a1.4,1.4,0,0,1,.69.69,7.64,7.64,0,0,1,1.5,4.85A24,24,0,0,1,338.43,275.25ZM236.64,217.86c9.35-11.36,25.84-9.76,38.56-6.32,3.1.84,1.78,5.66-1.33,4.82-11.06-3-25.51-4.91-33.7,5a2.52,2.52,0,0,1-3.53,0A2.57,2.57,0,0,1,236.64,217.86Z" transform="translate(-114.1 -86.85)" stroke="#000" stroke-miterlimit="10"/>
    <path d="M195.4,244.08c-3.6-2.86-8.29-4.19-12.75-5-1.24-.22-2.49-.39-3.74-.52a99.71,99.71,0,0,0-25.73,4.53c0,.09-.06.16-.09.26A46.62,46.62,0,0,0,150.77,260a36,36,0,0,0,1,8,12.76,12.76,0,0,0,2.82,6c3.64,4,9.76,4.69,15,4.93,2.87.14,5.75.1,8.62.09a43.33,43.33,0,0,0,8.23-.62c.69-.14,1.33-.29,1.94-.46a28.36,28.36,0,0,0,9-7.24A37.44,37.44,0,0,0,201.44,255C200.67,250.83,198.65,246.66,195.4,244.08ZM181.5,275c-4.14,0-7.5-5.37-7.5-12s3.36-12,7.5-12,7.5,5.37,7.5,12S185.64,275,181.5,275Zm10.3-16.78c-1.88-4.94-5.32-11.44-11.61-10.56s-9.56,7.28-10.53,12.88c-.33,1.91-3.23,1.09-2.9-.79,1.21-6.95,5.79-14.3,13.43-15.09,7.79-.8,12.11,6.46,14.5,12.76C195.37,259.23,192.47,260,191.8,258.22Z" transform="translate(-114.1 -86.85)" stroke="#000" stroke-miterlimit="10"/>
    <path d="M273,237.37a52.21,52.21,0,0,0-7.79-1.12c-2.77-.2-5.56-.26-8.36-.2a79.05,79.05,0,0,0-11.89,1.4c-5.26,1-10.73,2.51-15.34,5.37-.08.31-.18.61-.26.92A54.61,54.61,0,0,0,228,263.38a19.61,19.61,0,0,0,2.26,7.61c.22.33.45.65.68,1a18.4,18.4,0,0,0,5.74,4.58,47.11,47.11,0,0,0,17.49,5c5.88.58,12.34.65,17.95-.85a15,15,0,0,0,6.49-3.34,13.58,13.58,0,0,0,3.81-7.41,107.05,107.05,0,0,0,2.4-16.58c0-.1,0-.2,0-.3-.52-4.36-1.8-8.8-4.85-11.9A15.39,15.39,0,0,0,273,237.37ZM255.5,273c-4.14,0-7.5-5.37-7.5-12s3.36-12,7.5-12,7.5,5.37,7.5,12S259.64,273,255.5,273Zm13.61-16.49a19.65,19.65,0,0,0-6.26-7.82c-2.5-1.87-5.7-3.42-8.89-2.93a11.05,11.05,0,0,0-7.38,4.39,19.17,19.17,0,0,0-2.86,8.07c-.31,1.9-3.2,1.09-2.89-.8a21.66,21.66,0,0,1,3-8.54,13.64,13.64,0,0,1,14.6-5.74c5.74,1.55,10.94,6.45,13.27,11.86C272.45,256.76,269.87,258.28,269.11,256.51Z" transform="translate(-114.1 -86.85)" stroke="#000" stroke-miterlimit="10"/>
  </g>
</symbol>

<symbol id="broom" viewBox="0 0 368.89 168.48">
  <title>Broom</title>
  <path d="M409.5,196.5h8l-11-4h7l-6-5,8-1-2.77-3-5.23-2-13-3h13.32l-10.32-4h8.26l-22.26-7,10-2-14-1-20,4,14-6-15,2-35,7-25,10-4,2-10-1-12,1-7,1-11-2h-6l3,2-3,1-1,2-192-4-3.55,2v2l1.55,3,194,4.61h1.87l-1.87,1.39,4.19,1.5h-4.38l3.19,2.5h9.71l4.29-1,2.16,1,4.84,2,7,1h2.35l-.35,7-1,18-1,15-2,17-3,11-2,12-1,8-1,11v12l2,5,4,4,5.35,2.19,11.65,1.81h6.42l8.58,1,9,1h22.68l9.32-1h8l5-2,4-3,1-5V310l-2-7.45-1-4,1-5v-6l-3-12-5-11-6-6-2.81-2-2.19-11-2-12-3-12,23.19,8.5-6.19-5.5,30,7-11-7,15,1,6,3-3-4-9-4h10l-1-2,7-1-7-3h9l-5-3,12-1-9-5h7l-6-4,10-2Zm-141.2.3a1.52,1.52,0,0,1-1.84,1,1.55,1.55,0,0,1-1-1.85v-.09s0-.1,0-.16l.06-.53c0-.35.07-.69.1-1,0-.71.07-1.42,0-2.13,0-.36,0-.71-.07-1.07,0,0,0-.35,0-.39s-.05-.31-.08-.46c-.06-.31-.13-.62-.22-.92s-.1-.34-.16-.51a1.8,1.8,0,0,1-.08-.21l0,0a1.53,1.53,0,0,1,.54-2,1.5,1.5,0,0,1,2.05.54C269,190,268.77,193.51,268.3,196.8Zm46.27,6.56a1.51,1.51,0,0,1,1.84-1.05,10.52,10.52,0,0,0,1.34.34l.29,0a2.35,2.35,0,0,1,.37.05h0l.34,0c.89.1,1.78.15,2.66.24a1.83,1.83,0,0,1,1.07.44,1.5,1.5,0,0,1-1.07,2.56,27.69,27.69,0,0,1-5.81-.83A1.53,1.53,0,0,1,314.57,203.36Zm-11.12-.86c6.32,2.23,12.78,4.18,19.53,4.4,1.93.07,1.93,3.07,0,3-7-.22-13.74-2.18-20.33-4.5C300.84,204.76,301.62,201.86,303.45,202.5ZM294.19,186a1.5,1.5,0,0,1,3,0,45.14,45.14,0,0,1-.82,14.34c-.47,1.87-3.36,1.07-2.9-.8A42.46,42.46,0,0,0,294.19,186Zm-4.06-.19c-.11-.81.77-1.5,1.5-1.5a1.55,1.55,0,0,1,1.5,1.5,61.45,61.45,0,0,1-.2,13.35,1.53,1.53,0,0,1-1.5,1.5,1.51,1.51,0,0,1-1.5-1.5A61.45,61.45,0,0,0,290.13,185.76Zm57.11,118.29a82.37,82.37,0,0,1,12.9-2.7c1.93-.18,1.91,2.82,0,3-5.28.52-10.32,2.24-15.47,3.44a100.92,100.92,0,0,1-12.8,2.06c-15.07,1.52-31.72.51-45.26-6.86a21.14,21.14,0,0,1-7-5.44,14.31,14.31,0,0,1-2.53-7.3,62.22,62.22,0,0,1,.34-12.2,73.32,73.32,0,0,1,2.69-13.92c.55-1.84,3.45-1.05,2.89.8a71.74,71.74,0,0,0-2.77,15.24c-.29,3.81-.7,7.95.11,11.73,1.2,5.56,6.74,8.26,11.53,10.34a67.05,67.05,0,0,0,21.41,4.88,103.9,103.9,0,0,0,22.5-.74A101.42,101.42,0,0,0,347.24,304.05ZM313.6,295.1a1.5,1.5,0,0,1,1.45-1.1c2.07.05,3.25,1.67,4.11,3.37a5.46,5.46,0,0,1,1.21-1.1,5.27,5.27,0,0,1,3-2.6,1.52,1.52,0,0,1,1.69.69c2,3-.81,6-3.42,7.68l0,0-.43.57a1.54,1.54,0,0,1-2.05.54,15.24,15.24,0,0,1-3.71-3.13A6.21,6.21,0,0,1,313.6,295.1Zm27.9-38.6-6,4-9.74,2H312.08l-9.58-1-5,1-7-2-9-2,4-55h9l8,4,17,7,16,5,5,24Zm24.64-76.21c-5.21-.59-10.46,0-15.68,0-4.58,0-9.46-.36-13.75,1.54-1.75.77-3.28-1.82-1.52-2.59,4.59-2,9.54-2,14.46-2,3.51,0,7-.22,10.54-.25h0l-.12,0H360l-.54-.07-1-.1a16.88,16.88,0,0,0-2-.07,8.29,8.29,0,0,0-1.85.19,1.54,1.54,0,0,1-1.84-1,1.51,1.51,0,0,1,1.05-1.85c3.1-.64,6.22-.05,9.31.39a1.53,1.53,0,0,1,1.05,1.85,1.25,1.25,0,0,1-.58.8c.87,0,1.74.1,2.61.2C368,177.5,368.06,180.51,366.14,180.29Z" transform="translate(-51.45 -161.52)" stroke="#000" stroke-miterlimit="10"/>
</symbol>

<symbol id="lily" viewBox="0 0 274.5 219.84">
  <title>Lily</title>
  <g>
    <path d="M327.07,233.39a1.54,1.54,0,0,0-2.08.39l-.07.08-.17.18-.42.43c-.3.31-.62.6-.95.88a21.84,21.84,0,0,1-2,1.57l-.11.07a1.64,1.64,0,0,1-.22.14l-.52.33c-.35.21-.7.4-1.06.59s-.91.45-1.37.65a29.52,29.52,0,0,0-3-5.37c4.62,0,8.86-3.11,11.74-6.67a1.51,1.51,0,0,0-.39-2.08,1.52,1.52,0,0,0-2.08.39c-2.63,3.24-7,6.45-11.38,5.06a1.62,1.62,0,0,0-.64-.07,32.09,32.09,0,0,0-3.52-3.28c5.14-1.78,9.53-5.83,10.49-11.35a1.51,1.51,0,0,0-1.37-1.62,1.53,1.53,0,0,0-1.62,1.37c-.89,5.1-5.82,8.38-10.65,9.33A35.51,35.51,0,0,0,290.15,219a26.49,26.49,0,0,0-17.48,4.22c-4.83,3.28-8.24,8.21-10.65,13.45a67.27,67.27,0,0,0-5.15,19.53,1.6,1.6,0,0,0,0,.44,1.59,1.59,0,0,0-.88,2.47c7,9.25,19.34,13.08,30.54,12.9,10.8-.18,23.06-4,29-13.68a24.05,24.05,0,0,0,3.11-15.81,1.13,1.13,0,0,0,.37-1,22.48,22.48,0,0,0,8.39-6.06A1.49,1.49,0,0,0,327.07,233.39ZM287,256a9.75,9.75,0,0,1-4,4.87,9,9,0,0,1-7,.68,6.75,6.75,0,0,1-3.61-4.56,21.67,21.67,0,0,1-.58-8.14,33.81,33.81,0,0,1,2.29-9.65c.95-2.39,2.21-4.85,4.22-6.34l.06-.06C288.49,233.14,290.26,248.38,287,256Z" transform="translate(-119.4 -117.14)" fill="none"/>
    <path d="M199.78,249.48c-.35-10.74-3.89-21.82-12.13-29.1a24.66,24.66,0,0,0-24.29-5.08,1.29,1.29,0,0,0-.92-1c-.93-.21-1.86-.44-2.77-.74-.45-.15-.89-.31-1.33-.49l-.58-.27-.19-.09.15.07a2.59,2.59,0,0,1-.33-.17,11.26,11.26,0,0,1-1.08-.72l-.25-.19-.08-.07c-.15-.15-.31-.3-.45-.46a6,6,0,0,1-.4-.48l-.12-.17c0-.07-.12-.19-.13-.21-.11-.19-.21-.39-.31-.58l-.13-.31c0-.08-.2-.56-.07-.16a1.68,1.68,0,0,0-.63-1,1.48,1.48,0,0,0-1.12-.23,1.51,1.51,0,0,0-1.2,1.75,9.31,9.31,0,0,0,1.7,3.16,9.8,9.8,0,0,0,2.4,2,17.81,17.81,0,0,0,4.37,1.77,32.16,32.16,0,0,0-4.66,2.83,44.15,44.15,0,0,1-5-.5l-.18,0-.23-.06c-.21,0-.43-.11-.64-.18a9.21,9.21,0,0,1-1.23-.48h0l-.05,0-.29-.17c-.19-.12-.38-.25-.56-.39s-.18-.14-.27-.21l-.05,0,0,0c-.19-.19-.37-.38-.55-.58a1.5,1.5,0,1,0-2.26,2,10,10,0,0,0,5.59,3.13,19.21,19.21,0,0,0,2.38.34,51,51,0,0,0-4.76,5,1.47,1.47,0,0,0-1.46-.58c-1.2.22-2.41.45-3.64.56l-.37,0h-.23c-.29,0-.58,0-.87,0l-.84-.09a2.08,2.08,0,0,1-.36-.06c.36.12-.13,0-.2-.06a1.5,1.5,0,1,0-1,2.83,16.21,16.21,0,0,0,7.2-.1,1.39,1.39,0,0,0,0,.57c2.24,9.65,7.13,18.89,14.85,25.25,6.89,5.67,16,8.24,24.75,5.69A35.67,35.67,0,0,0,200,251.87,1.58,1.58,0,0,0,199.78,249.48Zm-16.55-3a12,12,0,0,1-3.62,6.14,10.77,10.77,0,0,1-3.43,1.79,5.71,5.71,0,0,1-2.9.22c-1.88-.48-3-2-3.79-3.95a21.85,21.85,0,0,1-1.43-7.81,35.47,35.47,0,0,1,1.08-9.84c.64-2.42,1.67-5.19,3.28-6.84a6.74,6.74,0,0,1,5.18-.48,8.75,8.75,0,0,1,4.35,4.56A23.6,23.6,0,0,1,183.23,246.48Z" transform="translate(-119.4 -117.14)" fill="none"/>
    <path d="M159,139.08c8.46,6.57,19.33,13.4,22,24.45-4.42.41-8.22,3.36-11.28,6.46-3.83,3.88-6.9,8.42-10.65,12.37-1.09,1.14,0,3.37,1.64,2.48a12.58,12.58,0,0,0,4.25-3.29,1.3,1.3,0,0,0,.08-1.55c1.93-2.36,3.81-4.75,5.9-7,3-3.21,7-6.92,11.76-6.52a1.51,1.51,0,0,0,1.6-1.77c-2-13-14-20.71-23.61-28.14C159.18,135.41,157.5,137.9,159,139.08Z" transform="translate(-119.4 -117.14)" fill="none"/>
    <path d="M372.22,152c-6.15,2.64-11.44,7-16,11.89a84.2,84.2,0,0,0-11.93,16.34c-.77,1.37,1,3.33,2.22,2a4.6,4.6,0,0,1,4.37-1.6,4.91,4.91,0,0,1-1.61,2.12c-1.41,1,.16,3.26,1.64,2.48.66-.34,2.15-1.07,2.82-.28.78.94-.58,2.56-1.13,3.19a1.49,1.49,0,0,0,.11,1.83c3.49,3.69,8.4,5.39,12.15,8.74,1.42,1.27,3.7-.68,2.26-2-3.43-3.07-7.9-4.83-11.29-7.92,1.1-1.73,1.63-4,.26-5.69a3.78,3.78,0,0,0-2.47-1.4,2.53,2.53,0,0,1,.5-.93,1.53,1.53,0,0,0-.48-2.55,10.76,10.76,0,0,0-4.27-.66,79.29,79.29,0,0,1,8.82-11.41c4.37-4.68,9.4-8.92,15.33-11.47C375.31,153.94,374,151.24,372.22,152Z" transform="translate(-119.4 -117.14)" fill="none"/>
    <path d="M219.86,275.36a26.09,26.09,0,0,0,6.09-1.44,8.09,8.09,0,0,0,3.92-2.6c1.11-1.62.5-3.41-.9-4.6a10.1,10.1,0,0,0-2.62-1.56,1.26,1.26,0,0,0-1-1.28,70.18,70.18,0,0,0-8.7-2c-3-.44-6.16-.66-9,.34-2.4.83-5.45,2.56-5.86,5.34-.38,2.58,1.87,4.52,3.92,5.62C210.07,275.54,215,275.94,219.86,275.36Z" transform="translate(-119.4 -117.14)" fill="none"/>
    <path d="M278.41,232.83l-.06.06c-2,1.49-3.27,4-4.22,6.34a33.81,33.81,0,0,0-2.29,9.65,21.67,21.67,0,0,0,.58,8.14,6.75,6.75,0,0,0,3.61,4.56,9,9,0,0,0,7-.68,9.75,9.75,0,0,0,4-4.87C290.26,248.38,288.49,233.14,278.41,232.83Z" transform="translate(-119.4 -117.14)"/>
    <path d="M177.6,225.71a6.74,6.74,0,0,0-5.18.48c-1.61,1.65-2.64,4.42-3.28,6.84a35.47,35.47,0,0,0-1.08,9.84,21.85,21.85,0,0,0,1.43,7.81c.81,1.91,1.91,3.47,3.79,3.95a5.71,5.71,0,0,0,2.9-.22,10.77,10.77,0,0,0,3.43-1.79,12,12,0,0,0,3.62-6.14A23.6,23.6,0,0,0,182,230.27,8.75,8.75,0,0,0,177.6,225.71Z" transform="translate(-119.4 -117.14)"/>
    <path d="M376.39,214.22,386.08,190l7.83-34L387.2,145l-17.27-2.85L324,163l-10.09-10.31-30.16-3.47-38-2.27-31.7,4.8-6.25,4.67-12.6-12.89L168,117.14l-14,2.64L148,152.47l-.21,36.67-19.51,26.07-8.39,35.87c6.16,1.86,12.31,3.79,18.5,5.56,1.86.53.84,3.36-1,2.83-6-1.72-12-3.61-18-5.42l2.27,12c4.16.35,8.33.54,12.48.68,1.93.06,1.68,3.05-.25,3-3.88-.13-7.78-.32-11.66-.63l1.88,10,16.16,21.38L166.35,320l27.16,9.12,29.74,6.61L265,337l79.77-15,29.67-25.73c-12.56-4.15-25.32-7.54-38.62-8.35-1.92-.12-1.68-3.11.25-3a117.34,117.34,0,0,1,13.74,1.65,188.34,188.34,0,0,1,26.82,7.26l10.15-23.37c-18.67-.81-37.52-.24-55.86,3.2a1.5,1.5,0,0,1-.56-2.95c6.36-1.19,12.79-2,19.23-2.56a301.21,301.21,0,0,1,38.48-.65l1.67-3.85L385.14,239Zm-174.6,53.36c.41-2.78,3.46-4.51,5.86-5.34,2.86-1,6.06-.78,9-.34a70.18,70.18,0,0,1,8.7,2,1.26,1.26,0,0,1,1,1.28,10.1,10.1,0,0,1,2.62,1.56c1.4,1.19,2,3,.9,4.6a8.09,8.09,0,0,1-3.92,2.6,26.09,26.09,0,0,1-6.09,1.44c-4.85.58-9.79.18-14.15-2.16C203.66,272.1,201.41,270.16,201.79,267.58Zm-41.08-131c9.57,7.43,21.6,15.15,23.61,28.14a1.51,1.51,0,0,1-1.6,1.77C178,166.11,174,169.82,171,173c-2.09,2.22-4,4.61-5.9,7a1.3,1.3,0,0,1-.08,1.55,12.58,12.58,0,0,1-4.25,3.29c-1.6.89-2.73-1.34-1.64-2.48,3.75-4,6.82-8.49,10.65-12.37,3.06-3.1,6.86-6.05,11.28-6.46-2.67-11.05-13.54-17.88-22-24.45C157.5,137.9,159.18,135.41,160.71,136.6Zm24.22,124.73c-8.7,2.55-17.86,0-24.75-5.69-7.72-6.36-12.61-15.6-14.85-25.25a1.39,1.39,0,0,1,0-.57,16.21,16.21,0,0,1-7.2.1,1.5,1.5,0,1,1,1-2.83c.07,0,.56.18.2.06a2.08,2.08,0,0,0,.36.06l.84.09c.29,0,.58,0,.87,0h.23l.37,0c1.23-.11,2.44-.34,3.64-.56a1.47,1.47,0,0,1,1.46.58,51,51,0,0,1,4.76-5,19.21,19.21,0,0,1-2.38-.34,10,10,0,0,1-5.59-3.13,1.5,1.5,0,1,1,2.26-2c.18.2.36.39.55.58l0,0,.05,0c.09.07.18.15.27.21s.37.27.56.39l.29.17.05,0h0a9.21,9.21,0,0,0,1.23.48c.21.07.43.13.64.18l.23.06.18,0a44.15,44.15,0,0,0,5,.5,32.16,32.16,0,0,1,4.66-2.83,17.81,17.81,0,0,1-4.37-1.77,9.8,9.8,0,0,1-2.4-2,9.31,9.31,0,0,1-1.7-3.16,1.51,1.51,0,0,1,1.2-1.75,1.48,1.48,0,0,1,1.12.23,1.68,1.68,0,0,1,.63,1c-.13-.4,0,.08.07.16l.13.31c.1.19.2.39.31.58,0,0,.08.14.13.21l.12.17a6,6,0,0,0,.4.48c.14.16.3.31.45.46l.08.07.25.19a11.26,11.26,0,0,0,1.08.72,2.59,2.59,0,0,0,.33.17l-.15-.07.19.09.58.27c.44.18.88.34,1.33.49.91.3,1.84.53,2.77.74a1.29,1.29,0,0,1,.92,1,24.66,24.66,0,0,1,24.29,5.08c8.24,7.28,11.78,18.36,12.13,29.1a1.58,1.58,0,0,1,.21,2.39A35.67,35.67,0,0,1,184.93,261.33Zm22.07,61V310l20,1,3.45,14.63Zm35.26-24.55a26.57,26.57,0,0,1-15.41,2.79,21.36,21.36,0,0,1-12.28-6.32,11.5,11.5,0,0,1-8.39,4.7c-4.21.26-7.81-2.23-10.1-5.58-1.1-1.59,1.5-3.09,2.59-1.51a8.54,8.54,0,0,0,7.51,4.09c3-.2,5.46-2.31,6.93-4.86a1.5,1.5,0,0,1,2.35-.31,18.89,18.89,0,0,0,11.85,6.85,23.18,23.18,0,0,0,13.43-2.44C242.47,294.32,244,296.91,242.26,297.76Zm85.2-62.29a22.48,22.48,0,0,1-8.39,6.06,1.13,1.13,0,0,1-.37,1,24.05,24.05,0,0,1-3.11,15.81c-6,9.68-18.25,13.5-29,13.68-11.2.18-23.57-3.65-30.54-12.9a1.59,1.59,0,0,1,.88-2.47,1.6,1.6,0,0,1,0-.44A67.27,67.27,0,0,1,262,236.7c2.41-5.24,5.82-10.17,10.65-13.45A26.49,26.49,0,0,1,290.15,219a35.51,35.51,0,0,1,15.54,5.38c4.83-.95,9.76-4.23,10.65-9.33a1.53,1.53,0,0,1,1.62-1.37,1.51,1.51,0,0,1,1.37,1.62c-1,5.52-5.35,9.57-10.49,11.35a32.09,32.09,0,0,1,3.52,3.28,1.62,1.62,0,0,1,.64.07c4.38,1.39,8.75-1.82,11.38-5.06a1.52,1.52,0,0,1,2.08-.39,1.51,1.51,0,0,1,.39,2.08c-2.88,3.56-7.12,6.67-11.74,6.67a29.52,29.52,0,0,1,3,5.37c.46-.2.92-.41,1.37-.65s.71-.38,1.06-.59l.52-.33a1.64,1.64,0,0,0,.22-.14l.11-.07a21.84,21.84,0,0,0,2-1.57c.33-.28.65-.57.95-.88l.42-.43.17-.18.07-.08a1.54,1.54,0,0,1,2.08-.39A1.49,1.49,0,0,1,327.46,235.47Zm46.08-80.77c-5.93,2.55-11,6.79-15.33,11.47a79.29,79.29,0,0,0-8.82,11.41,10.76,10.76,0,0,1,4.27.66,1.53,1.53,0,0,1,.48,2.55,2.53,2.53,0,0,0-.5.93,3.78,3.78,0,0,1,2.47,1.4c1.37,1.73.84,4-.26,5.69,3.39,3.09,7.86,4.85,11.29,7.92,1.44,1.29-.84,3.24-2.26,2-3.75-3.35-8.66-5-12.15-8.74a1.49,1.49,0,0,1-.11-1.83c.55-.63,1.91-2.25,1.13-3.19-.67-.79-2.16-.06-2.82.28-1.48.78-3.05-1.52-1.64-2.48a4.91,4.91,0,0,0,1.61-2.12,4.6,4.6,0,0,0-4.37,1.6c-1.24,1.35-3-.61-2.22-2a84.2,84.2,0,0,1,11.93-16.34c4.54-4.85,9.83-9.25,16-11.89C374,151.24,375.31,153.94,373.54,154.7Z" transform="translate(-119.4 -117.14)"/>
    <path d="M223.08,314.78a3.13,3.13,0,0,0-1.52-.07,4.31,4.31,0,0,0-.39-.46,7.23,7.23,0,0,0-4.58-1.83,4.9,4.9,0,0,0-3.67,1c-1.69,1.55-1.11,3.94.16,5.56,0,.08.09.17.14.24a7.62,7.62,0,0,0,4,3,4.59,4.59,0,0,0,2.44-.06h.46a1.41,1.41,0,0,0,1.07,0l.56,0a11.9,11.9,0,0,0,1.19-.23,1.53,1.53,0,0,0,1.2-1.75,1.75,1.75,0,0,0-.48-.82,7.41,7.41,0,0,0,.71-1.44A2.23,2.23,0,0,0,223.08,314.78Z" transform="translate(-119.4 -117.14)"/>
    <path d="M207,310v12.31l23.45,3.32L227,311Zm17.34,7.8a7.41,7.41,0,0,1-.71,1.44,1.75,1.75,0,0,1,.48.82,1.53,1.53,0,0,1-1.2,1.75,11.9,11.9,0,0,1-1.19.23l-.56,0a1.41,1.41,0,0,1-1.07,0h-.46a4.59,4.59,0,0,1-2.44.06,7.62,7.62,0,0,1-4-3c-.05-.07-.09-.16-.14-.24-1.27-1.62-1.85-4-.16-5.56a4.9,4.9,0,0,1,3.67-1,7.23,7.23,0,0,1,4.58,1.83,4.31,4.31,0,0,1,.39.46,3.13,3.13,0,0,1,1.52.07A2.23,2.23,0,0,1,224.34,317.8Z" transform="translate(-119.4 -117.14)"/>
  </g>
</symbol>
</svg>
